G75*
%MOIN*%
%OFA0B0*%
%FSLAX25Y25*%
%IPPOS*%
%LPD*%
%AMOC8*
5,1,8,0,0,1.08239X$1,22.5*
%
%ADD10R,0.08674X0.05524*%
%ADD11R,0.06115X0.03162*%
%ADD12C,0.05131*%
%ADD13R,0.05524X0.08674*%
%ADD14R,0.03162X0.06115*%
D10*
X0562802Y0080376D03*
X0562802Y0102424D03*
D11*
X0548333Y0097306D03*
X0548333Y0093369D03*
X0548333Y0089431D03*
X0548333Y0085494D03*
D12*
X0525026Y0083723D02*
X0525026Y0080179D01*
X0525026Y0080179D01*
X0525026Y0083723D01*
X0525026Y0083723D01*
X0518333Y0083723D02*
X0518333Y0080179D01*
X0518333Y0080179D01*
X0518333Y0083723D01*
X0518333Y0083723D01*
X0511640Y0083723D02*
X0511640Y0080179D01*
X0511640Y0080179D01*
X0511640Y0083723D01*
X0511640Y0083723D01*
X0511640Y0099077D02*
X0511640Y0102621D01*
X0511640Y0099077D02*
X0511640Y0099077D01*
X0511640Y0102621D01*
X0511640Y0102621D01*
X0518333Y0102621D02*
X0518333Y0099077D01*
X0518333Y0099077D01*
X0518333Y0102621D01*
X0518333Y0102621D01*
X0525026Y0102621D02*
X0525026Y0099077D01*
X0525026Y0099077D01*
X0525026Y0102621D01*
X0525026Y0102621D01*
X0526010Y0058093D02*
X0529554Y0058093D01*
X0526010Y0058093D02*
X0526010Y0058093D01*
X0529554Y0058093D01*
X0529554Y0058093D01*
X0510657Y0058093D02*
X0507113Y0058093D01*
X0507113Y0058093D01*
X0510657Y0058093D01*
X0510657Y0058093D01*
X0510657Y0051400D02*
X0507113Y0051400D01*
X0507113Y0051400D01*
X0510657Y0051400D01*
X0510657Y0051400D01*
X0526010Y0051400D02*
X0529554Y0051400D01*
X0526010Y0051400D02*
X0526010Y0051400D01*
X0529554Y0051400D01*
X0529554Y0051400D01*
X0529554Y0044707D02*
X0526010Y0044707D01*
X0526010Y0044707D01*
X0529554Y0044707D01*
X0529554Y0044707D01*
X0510657Y0044707D02*
X0507113Y0044707D01*
X0507113Y0044707D01*
X0510657Y0044707D01*
X0510657Y0044707D01*
D13*
X0507310Y0006931D03*
X0529357Y0006931D03*
D14*
X0524239Y0021400D03*
X0520302Y0021400D03*
X0516365Y0021400D03*
X0512428Y0021400D03*
M02*
