G75*
%MOIN*%
%OFA0B0*%
%FSLAX25Y25*%
%IPPOS*%
%LPD*%
%AMOC8*
5,1,8,0,0,1.08239X$1,22.5*
%
%ADD10R,0.04724X0.07874*%
%ADD11R,0.02362X0.05315*%
%ADD12C,0.04331*%
%ADD13R,0.07874X0.04724*%
%ADD14R,0.05315X0.02362*%
%ADD15C,0.00800*%
%ADD16C,0.02900*%
%ADD17C,0.02975*%
D10*
X0407310Y0006931D03*
X0429357Y0006931D03*
X0467310Y0006931D03*
X0489357Y0006931D03*
X0507310Y0006931D03*
X0529357Y0006931D03*
D11*
X0524239Y0021400D03*
X0520302Y0021400D03*
X0516365Y0021400D03*
X0512428Y0021400D03*
X0484239Y0021400D03*
X0480302Y0021400D03*
X0476365Y0021400D03*
X0472428Y0021400D03*
X0424239Y0021400D03*
X0420302Y0021400D03*
X0416365Y0021400D03*
X0412428Y0021400D03*
D12*
X0507113Y0044707D02*
X0510657Y0044707D01*
X0510657Y0044707D01*
X0507113Y0044707D01*
X0507113Y0044707D01*
X0526010Y0044707D02*
X0529554Y0044707D01*
X0529554Y0044707D01*
X0526010Y0044707D01*
X0526010Y0044707D01*
X0526010Y0051400D02*
X0529554Y0051400D01*
X0529554Y0051400D01*
X0526010Y0051400D01*
X0526010Y0051400D01*
X0510657Y0051400D02*
X0507113Y0051400D01*
X0510657Y0051400D02*
X0510657Y0051400D01*
X0507113Y0051400D01*
X0507113Y0051400D01*
X0489554Y0049707D02*
X0486010Y0049707D01*
X0489554Y0049707D02*
X0489554Y0049707D01*
X0486010Y0049707D01*
X0486010Y0049707D01*
X0470657Y0049707D02*
X0467113Y0049707D01*
X0470657Y0049707D02*
X0470657Y0049707D01*
X0467113Y0049707D01*
X0467113Y0049707D01*
X0467113Y0056400D02*
X0470657Y0056400D01*
X0470657Y0056400D01*
X0467113Y0056400D01*
X0467113Y0056400D01*
X0486010Y0056400D02*
X0489554Y0056400D01*
X0489554Y0056400D01*
X0486010Y0056400D01*
X0486010Y0056400D01*
X0507113Y0058093D02*
X0510657Y0058093D01*
X0510657Y0058093D01*
X0507113Y0058093D01*
X0507113Y0058093D01*
X0526010Y0058093D02*
X0529554Y0058093D01*
X0529554Y0058093D01*
X0526010Y0058093D01*
X0526010Y0058093D01*
X0489554Y0063093D02*
X0486010Y0063093D01*
X0489554Y0063093D02*
X0489554Y0063093D01*
X0486010Y0063093D01*
X0486010Y0063093D01*
X0470657Y0063093D02*
X0467113Y0063093D01*
X0470657Y0063093D02*
X0470657Y0063093D01*
X0467113Y0063093D01*
X0467113Y0063093D01*
X0429554Y0063093D02*
X0426010Y0063093D01*
X0426010Y0063093D01*
X0429554Y0063093D01*
X0429554Y0063093D01*
X0410657Y0063093D02*
X0407113Y0063093D01*
X0407113Y0063093D01*
X0410657Y0063093D01*
X0410657Y0063093D01*
X0410657Y0056400D02*
X0407113Y0056400D01*
X0407113Y0056400D01*
X0410657Y0056400D01*
X0410657Y0056400D01*
X0426010Y0056400D02*
X0429554Y0056400D01*
X0426010Y0056400D02*
X0426010Y0056400D01*
X0429554Y0056400D01*
X0429554Y0056400D01*
X0429554Y0049707D02*
X0426010Y0049707D01*
X0426010Y0049707D01*
X0429554Y0049707D01*
X0429554Y0049707D01*
X0410657Y0049707D02*
X0407113Y0049707D01*
X0407113Y0049707D01*
X0410657Y0049707D01*
X0410657Y0049707D01*
X0511640Y0080179D02*
X0511640Y0083723D01*
X0511640Y0083723D01*
X0511640Y0080179D01*
X0511640Y0080179D01*
X0518333Y0080179D02*
X0518333Y0083723D01*
X0518333Y0083723D01*
X0518333Y0080179D01*
X0518333Y0080179D01*
X0525026Y0080179D02*
X0525026Y0083723D01*
X0525026Y0083723D01*
X0525026Y0080179D01*
X0525026Y0080179D01*
X0489554Y0084707D02*
X0486010Y0084707D01*
X0489554Y0084707D02*
X0489554Y0084707D01*
X0486010Y0084707D01*
X0486010Y0084707D01*
X0470657Y0084707D02*
X0467113Y0084707D01*
X0470657Y0084707D02*
X0470657Y0084707D01*
X0467113Y0084707D01*
X0467113Y0084707D01*
X0467113Y0091400D02*
X0470657Y0091400D01*
X0470657Y0091400D01*
X0467113Y0091400D01*
X0467113Y0091400D01*
X0486010Y0091400D02*
X0489554Y0091400D01*
X0489554Y0091400D01*
X0486010Y0091400D01*
X0486010Y0091400D01*
X0486010Y0098093D02*
X0489554Y0098093D01*
X0489554Y0098093D01*
X0486010Y0098093D01*
X0486010Y0098093D01*
X0470657Y0098093D02*
X0467113Y0098093D01*
X0470657Y0098093D02*
X0470657Y0098093D01*
X0467113Y0098093D01*
X0467113Y0098093D01*
X0429554Y0098093D02*
X0426010Y0098093D01*
X0426010Y0098093D01*
X0429554Y0098093D01*
X0429554Y0098093D01*
X0410657Y0098093D02*
X0407113Y0098093D01*
X0407113Y0098093D01*
X0410657Y0098093D01*
X0410657Y0098093D01*
X0410657Y0091400D02*
X0407113Y0091400D01*
X0407113Y0091400D01*
X0410657Y0091400D01*
X0410657Y0091400D01*
X0426010Y0091400D02*
X0429554Y0091400D01*
X0426010Y0091400D02*
X0426010Y0091400D01*
X0429554Y0091400D01*
X0429554Y0091400D01*
X0429554Y0084707D02*
X0426010Y0084707D01*
X0426010Y0084707D01*
X0429554Y0084707D01*
X0429554Y0084707D01*
X0410657Y0084707D02*
X0407113Y0084707D01*
X0407113Y0084707D01*
X0410657Y0084707D01*
X0410657Y0084707D01*
X0511640Y0099077D02*
X0511640Y0102621D01*
X0511640Y0102621D01*
X0511640Y0099077D01*
X0511640Y0099077D01*
X0518333Y0099077D02*
X0518333Y0102621D01*
X0518333Y0102621D01*
X0518333Y0099077D01*
X0518333Y0099077D01*
X0525026Y0099077D02*
X0525026Y0102621D01*
X0525026Y0102621D01*
X0525026Y0099077D01*
X0525026Y0099077D01*
D13*
X0562802Y0102424D03*
X0562802Y0080376D03*
D14*
X0548333Y0085494D03*
X0548333Y0089431D03*
X0548333Y0093369D03*
X0548333Y0097306D03*
D15*
X0399833Y0104900D02*
X0399833Y0002900D01*
X0403848Y0002900D01*
X0403848Y0011324D01*
X0404492Y0011968D01*
X0410128Y0011968D01*
X0410772Y0011324D01*
X0410772Y0002900D01*
X0425895Y0002900D01*
X0425895Y0011324D01*
X0426539Y0011968D01*
X0432175Y0011968D01*
X0432819Y0011324D01*
X0432819Y0002900D01*
X0463848Y0002900D01*
X0463848Y0011324D01*
X0464492Y0011968D01*
X0470128Y0011968D01*
X0470772Y0011324D01*
X0470772Y0002900D01*
X0485895Y0002900D01*
X0485895Y0011324D01*
X0486539Y0011968D01*
X0492175Y0011968D01*
X0492819Y0011324D01*
X0492819Y0002900D01*
X0496833Y0002900D01*
X0496833Y0104900D01*
X0491955Y0104900D01*
X0492333Y0104521D01*
X0493955Y0102900D01*
X0494833Y0102021D01*
X0494833Y0091779D01*
X0493833Y0090779D01*
X0492955Y0089900D01*
X0492467Y0089900D01*
X0492322Y0089550D01*
X0491403Y0088632D01*
X0490203Y0088135D01*
X0485361Y0088135D01*
X0484161Y0088632D01*
X0483242Y0089550D01*
X0482745Y0090750D01*
X0482745Y0092050D01*
X0483242Y0093250D01*
X0484161Y0094168D01*
X0485361Y0094665D01*
X0490203Y0094665D01*
X0491403Y0094168D01*
X0491833Y0093738D01*
X0491833Y0095755D01*
X0491403Y0095325D01*
X0490203Y0094828D01*
X0485361Y0094828D01*
X0484161Y0095325D01*
X0483242Y0096243D01*
X0483097Y0096593D01*
X0480648Y0096593D01*
X0480447Y0096392D01*
X0480495Y0096344D01*
X0480883Y0095407D01*
X0480883Y0094393D01*
X0480495Y0093456D01*
X0479833Y0092794D01*
X0479833Y0092779D01*
X0477833Y0090779D01*
X0476955Y0089900D01*
X0473569Y0089900D01*
X0473424Y0089550D01*
X0472506Y0088632D01*
X0471434Y0088188D01*
X0471696Y0088135D01*
X0472345Y0087867D01*
X0472929Y0087476D01*
X0473426Y0086980D01*
X0473816Y0086396D01*
X0474084Y0085747D01*
X0474212Y0085107D01*
X0469285Y0085107D01*
X0469285Y0084307D01*
X0474212Y0084307D01*
X0474084Y0083667D01*
X0473816Y0083018D01*
X0473426Y0082434D01*
X0472929Y0081938D01*
X0472345Y0081548D01*
X0471696Y0081279D01*
X0471007Y0081142D01*
X0469284Y0081142D01*
X0469284Y0084307D01*
X0468485Y0084307D01*
X0468485Y0081142D01*
X0466762Y0081142D01*
X0466073Y0081279D01*
X0465424Y0081548D01*
X0464840Y0081938D01*
X0464343Y0082434D01*
X0463953Y0083018D01*
X0463685Y0083667D01*
X0463557Y0084307D01*
X0468484Y0084307D01*
X0468484Y0085107D01*
X0463557Y0085107D01*
X0463685Y0085747D01*
X0463953Y0086396D01*
X0464343Y0086980D01*
X0464840Y0087476D01*
X0465424Y0087867D01*
X0466073Y0088135D01*
X0466335Y0088188D01*
X0465263Y0088632D01*
X0464345Y0089550D01*
X0463848Y0090750D01*
X0463848Y0092050D01*
X0464345Y0093250D01*
X0465263Y0094168D01*
X0466463Y0094665D01*
X0471306Y0094665D01*
X0472506Y0094168D01*
X0473424Y0093250D01*
X0473569Y0092900D01*
X0475712Y0092900D01*
X0476220Y0093408D01*
X0476172Y0093456D01*
X0475783Y0094393D01*
X0475783Y0095407D01*
X0476172Y0096344D01*
X0476833Y0097006D01*
X0476833Y0097021D01*
X0477712Y0097900D01*
X0479405Y0099593D01*
X0483097Y0099593D01*
X0483242Y0099943D01*
X0484161Y0100861D01*
X0485361Y0101358D01*
X0490203Y0101358D01*
X0491403Y0100861D01*
X0491833Y0100431D01*
X0491833Y0100779D01*
X0490212Y0102400D01*
X0411455Y0102400D01*
X0410413Y0101358D01*
X0411306Y0101358D01*
X0412506Y0100861D01*
X0413424Y0099943D01*
X0413922Y0098742D01*
X0413922Y0097443D01*
X0413424Y0096243D01*
X0412506Y0095325D01*
X0411306Y0094828D01*
X0406463Y0094828D01*
X0405263Y0095325D01*
X0404345Y0096243D01*
X0403848Y0097443D01*
X0403848Y0098742D01*
X0404345Y0099943D01*
X0405263Y0100861D01*
X0406463Y0101358D01*
X0407385Y0101358D01*
X0407385Y0102573D01*
X0409333Y0104521D01*
X0409712Y0104900D01*
X0399833Y0104900D01*
X0399833Y0104408D02*
X0409220Y0104408D01*
X0408421Y0103609D02*
X0399833Y0103609D01*
X0399833Y0102811D02*
X0407623Y0102811D01*
X0407385Y0102012D02*
X0399833Y0102012D01*
X0399833Y0101214D02*
X0406115Y0101214D01*
X0404817Y0100415D02*
X0399833Y0100415D01*
X0399833Y0099617D02*
X0404210Y0099617D01*
X0403879Y0098818D02*
X0399833Y0098818D01*
X0399833Y0098020D02*
X0403848Y0098020D01*
X0403939Y0097221D02*
X0399833Y0097221D01*
X0399833Y0096423D02*
X0404270Y0096423D01*
X0404964Y0095624D02*
X0399833Y0095624D01*
X0399833Y0094826D02*
X0424581Y0094826D01*
X0424322Y0094933D02*
X0424971Y0094665D01*
X0425233Y0094612D01*
X0424161Y0094168D01*
X0423242Y0093250D01*
X0423097Y0092900D01*
X0420712Y0092900D01*
X0417717Y0089905D01*
X0416889Y0089562D01*
X0416172Y0088844D01*
X0415783Y0087907D01*
X0415783Y0086893D01*
X0416053Y0086241D01*
X0416019Y0086207D01*
X0413569Y0086207D01*
X0413424Y0086557D01*
X0412506Y0087475D01*
X0411306Y0087972D01*
X0406463Y0087972D01*
X0405263Y0087475D01*
X0404345Y0086557D01*
X0403848Y0085357D01*
X0403848Y0084058D01*
X0404345Y0082857D01*
X0405263Y0081939D01*
X0406463Y0081442D01*
X0411306Y0081442D01*
X0412506Y0081939D01*
X0413424Y0082857D01*
X0413569Y0083207D01*
X0417262Y0083207D01*
X0418140Y0084086D01*
X0418950Y0084895D01*
X0419778Y0085238D01*
X0420495Y0085956D01*
X0420883Y0086893D01*
X0420883Y0087907D01*
X0420613Y0088559D01*
X0421955Y0089900D01*
X0423097Y0089900D01*
X0423242Y0089550D01*
X0424161Y0088632D01*
X0425361Y0088135D01*
X0430203Y0088135D01*
X0431403Y0088632D01*
X0432322Y0089550D01*
X0432819Y0090750D01*
X0432819Y0092050D01*
X0432322Y0093250D01*
X0431403Y0094168D01*
X0430331Y0094612D01*
X0430594Y0094665D01*
X0431243Y0094933D01*
X0431827Y0095324D01*
X0432323Y0095820D01*
X0432713Y0096404D01*
X0432982Y0097053D01*
X0433109Y0097693D01*
X0428182Y0097693D01*
X0428182Y0098493D01*
X0427382Y0098493D01*
X0427382Y0097693D01*
X0422455Y0097693D01*
X0422582Y0097053D01*
X0422851Y0096404D01*
X0423241Y0095820D01*
X0423738Y0095324D01*
X0424322Y0094933D01*
X0424020Y0094027D02*
X0412647Y0094027D01*
X0412506Y0094168D02*
X0411306Y0094665D01*
X0406463Y0094665D01*
X0405263Y0094168D01*
X0404345Y0093250D01*
X0404200Y0092900D01*
X0402712Y0092900D01*
X0400712Y0090900D01*
X0399833Y0090021D01*
X0399833Y0064779D01*
X0403019Y0061593D01*
X0404200Y0061593D01*
X0404345Y0061243D01*
X0405263Y0060325D01*
X0406463Y0059828D01*
X0411306Y0059828D01*
X0412506Y0060325D01*
X0413424Y0061243D01*
X0413922Y0062443D01*
X0413922Y0063742D01*
X0413424Y0064943D01*
X0412506Y0065861D01*
X0411306Y0066358D01*
X0406463Y0066358D01*
X0405263Y0065861D01*
X0404345Y0064943D01*
X0404218Y0064637D01*
X0402833Y0066021D01*
X0402833Y0088779D01*
X0403955Y0089900D01*
X0404200Y0089900D01*
X0404345Y0089550D01*
X0405263Y0088632D01*
X0406463Y0088135D01*
X0411306Y0088135D01*
X0412506Y0088632D01*
X0413424Y0089550D01*
X0413922Y0090750D01*
X0413922Y0092050D01*
X0413424Y0093250D01*
X0412506Y0094168D01*
X0413433Y0093229D02*
X0423234Y0093229D01*
X0423437Y0095624D02*
X0412805Y0095624D01*
X0413499Y0096423D02*
X0422843Y0096423D01*
X0422549Y0097221D02*
X0413830Y0097221D01*
X0413922Y0098020D02*
X0427382Y0098020D01*
X0427382Y0098493D02*
X0422455Y0098493D01*
X0422582Y0099133D01*
X0422851Y0099782D01*
X0423241Y0100366D01*
X0423738Y0100862D01*
X0424322Y0101252D01*
X0424971Y0101521D01*
X0425659Y0101658D01*
X0427382Y0101658D01*
X0427382Y0098493D01*
X0427382Y0098818D02*
X0428182Y0098818D01*
X0428182Y0098493D02*
X0428182Y0101658D01*
X0429905Y0101658D01*
X0430594Y0101521D01*
X0431243Y0101252D01*
X0431827Y0100862D01*
X0432323Y0100366D01*
X0432713Y0099782D01*
X0432982Y0099133D01*
X0433109Y0098493D01*
X0428182Y0098493D01*
X0428182Y0098020D02*
X0463848Y0098020D01*
X0463848Y0097443D02*
X0463848Y0098742D01*
X0464345Y0099943D01*
X0465263Y0100861D01*
X0466463Y0101358D01*
X0471306Y0101358D01*
X0472506Y0100861D01*
X0473424Y0099943D01*
X0473922Y0098742D01*
X0473922Y0097443D01*
X0473424Y0096243D01*
X0472506Y0095325D01*
X0471306Y0094828D01*
X0466463Y0094828D01*
X0465263Y0095325D01*
X0464345Y0096243D01*
X0463848Y0097443D01*
X0463939Y0097221D02*
X0433016Y0097221D01*
X0432721Y0096423D02*
X0464270Y0096423D01*
X0464964Y0095624D02*
X0432127Y0095624D01*
X0430983Y0094826D02*
X0475783Y0094826D01*
X0475873Y0095624D02*
X0472805Y0095624D01*
X0473499Y0096423D02*
X0476250Y0096423D01*
X0477033Y0097221D02*
X0473830Y0097221D01*
X0473922Y0098020D02*
X0477832Y0098020D01*
X0478630Y0098818D02*
X0473890Y0098818D01*
X0473559Y0099617D02*
X0483107Y0099617D01*
X0483715Y0100415D02*
X0472952Y0100415D01*
X0471654Y0101214D02*
X0485012Y0101214D01*
X0490552Y0101214D02*
X0491398Y0101214D01*
X0490600Y0102012D02*
X0411067Y0102012D01*
X0411654Y0101214D02*
X0424264Y0101214D01*
X0423291Y0100415D02*
X0412952Y0100415D01*
X0413559Y0099617D02*
X0422783Y0099617D01*
X0422520Y0098818D02*
X0413890Y0098818D01*
X0408885Y0098093D02*
X0408885Y0101951D01*
X0410833Y0103900D01*
X0490833Y0103900D01*
X0493333Y0101400D01*
X0493333Y0092400D01*
X0492333Y0091400D01*
X0487782Y0091400D01*
X0483556Y0089236D02*
X0473110Y0089236D01*
X0472037Y0088438D02*
X0484629Y0088438D01*
X0484557Y0087639D02*
X0472685Y0087639D01*
X0473519Y0086841D02*
X0483526Y0086841D01*
X0483242Y0086557D02*
X0482745Y0085357D01*
X0482745Y0084058D01*
X0483242Y0082857D01*
X0484161Y0081939D01*
X0485361Y0081442D01*
X0486833Y0081442D01*
X0486833Y0075779D01*
X0491833Y0070779D01*
X0491833Y0065431D01*
X0491403Y0065861D01*
X0490203Y0066358D01*
X0485361Y0066358D01*
X0484161Y0065861D01*
X0483242Y0064943D01*
X0483097Y0064593D01*
X0479405Y0064593D01*
X0477712Y0062900D01*
X0476833Y0062021D01*
X0476833Y0062006D01*
X0476172Y0061344D01*
X0475783Y0060407D01*
X0475783Y0059393D01*
X0476172Y0058456D01*
X0476220Y0058408D01*
X0475712Y0057900D01*
X0473569Y0057900D01*
X0473424Y0058250D01*
X0472506Y0059168D01*
X0471306Y0059665D01*
X0466463Y0059665D01*
X0465263Y0059168D01*
X0464345Y0058250D01*
X0463848Y0057050D01*
X0463848Y0055750D01*
X0464345Y0054550D01*
X0465263Y0053632D01*
X0466335Y0053188D01*
X0466073Y0053135D01*
X0465424Y0052867D01*
X0464840Y0052476D01*
X0464343Y0051980D01*
X0463953Y0051396D01*
X0463685Y0050747D01*
X0463557Y0050107D01*
X0468484Y0050107D01*
X0468484Y0049307D01*
X0463557Y0049307D01*
X0463685Y0048667D01*
X0463953Y0048018D01*
X0464343Y0047434D01*
X0464840Y0046938D01*
X0465424Y0046548D01*
X0466073Y0046279D01*
X0466762Y0046142D01*
X0468485Y0046142D01*
X0468485Y0049307D01*
X0469284Y0049307D01*
X0469284Y0046142D01*
X0471007Y0046142D01*
X0471696Y0046279D01*
X0472345Y0046548D01*
X0472929Y0046938D01*
X0473426Y0047434D01*
X0473816Y0048018D01*
X0474084Y0048667D01*
X0474212Y0049307D01*
X0469285Y0049307D01*
X0469285Y0050107D01*
X0474212Y0050107D01*
X0474084Y0050747D01*
X0473816Y0051396D01*
X0473426Y0051980D01*
X0472929Y0052476D01*
X0472345Y0052867D01*
X0471696Y0053135D01*
X0471434Y0053188D01*
X0472506Y0053632D01*
X0473424Y0054550D01*
X0473569Y0054900D01*
X0476955Y0054900D01*
X0483097Y0054900D01*
X0483242Y0054550D02*
X0482745Y0055750D01*
X0482745Y0057050D01*
X0483242Y0058250D01*
X0484161Y0059168D01*
X0485361Y0059665D01*
X0490203Y0059665D01*
X0491403Y0059168D01*
X0491833Y0058738D01*
X0491833Y0060755D01*
X0491403Y0060325D01*
X0490203Y0059828D01*
X0485361Y0059828D01*
X0484161Y0060325D01*
X0483242Y0061243D01*
X0483097Y0061593D01*
X0480648Y0061593D01*
X0480447Y0061392D01*
X0480495Y0061344D01*
X0480883Y0060407D01*
X0480883Y0059393D01*
X0480495Y0058456D01*
X0479833Y0057794D01*
X0479833Y0057779D01*
X0477833Y0055779D01*
X0476955Y0054900D01*
X0477753Y0055699D02*
X0482767Y0055699D01*
X0482745Y0056497D02*
X0478552Y0056497D01*
X0479350Y0057296D02*
X0482847Y0057296D01*
X0483178Y0058094D02*
X0480134Y0058094D01*
X0480676Y0058893D02*
X0483885Y0058893D01*
X0483996Y0060490D02*
X0480849Y0060490D01*
X0480883Y0059691D02*
X0491833Y0059691D01*
X0491833Y0058893D02*
X0491679Y0058893D01*
X0491569Y0060490D02*
X0491833Y0060490D01*
X0494833Y0060490D02*
X0496833Y0060490D01*
X0496833Y0061288D02*
X0494833Y0061288D01*
X0494833Y0062087D02*
X0496833Y0062087D01*
X0496833Y0062885D02*
X0494833Y0062885D01*
X0494833Y0063684D02*
X0496833Y0063684D01*
X0496833Y0064482D02*
X0494833Y0064482D01*
X0494833Y0065281D02*
X0496833Y0065281D01*
X0496833Y0066079D02*
X0494833Y0066079D01*
X0494833Y0066878D02*
X0496833Y0066878D01*
X0496833Y0067676D02*
X0494833Y0067676D01*
X0494833Y0068475D02*
X0496833Y0068475D01*
X0496833Y0069273D02*
X0494833Y0069273D01*
X0494833Y0070072D02*
X0496833Y0070072D01*
X0496833Y0070870D02*
X0494833Y0070870D01*
X0494833Y0071669D02*
X0496833Y0071669D01*
X0496833Y0072468D02*
X0494387Y0072468D01*
X0493955Y0072900D02*
X0489833Y0077021D01*
X0489833Y0081442D01*
X0490203Y0081442D01*
X0491403Y0081939D01*
X0492322Y0082857D01*
X0492819Y0084058D01*
X0492819Y0085357D01*
X0492322Y0086557D01*
X0491403Y0087475D01*
X0490203Y0087972D01*
X0485361Y0087972D01*
X0484161Y0087475D01*
X0483242Y0086557D01*
X0483029Y0086042D02*
X0473962Y0086042D01*
X0474185Y0085244D02*
X0482745Y0085244D01*
X0482745Y0084445D02*
X0469285Y0084445D01*
X0469284Y0083647D02*
X0468485Y0083647D01*
X0468484Y0084445D02*
X0432819Y0084445D01*
X0432819Y0084058D02*
X0432322Y0082857D01*
X0431403Y0081939D01*
X0430203Y0081442D01*
X0425361Y0081442D01*
X0424161Y0081939D01*
X0423242Y0082857D01*
X0422745Y0084058D01*
X0422745Y0085357D01*
X0423242Y0086557D01*
X0424161Y0087475D01*
X0425361Y0087972D01*
X0430203Y0087972D01*
X0431403Y0087475D01*
X0432322Y0086557D01*
X0432819Y0085357D01*
X0432819Y0084058D01*
X0432649Y0083647D02*
X0463693Y0083647D01*
X0464067Y0082848D02*
X0432313Y0082848D01*
X0431514Y0082050D02*
X0464728Y0082050D01*
X0466212Y0081251D02*
X0402833Y0081251D01*
X0402833Y0080453D02*
X0486833Y0080453D01*
X0486833Y0081251D02*
X0471557Y0081251D01*
X0473041Y0082050D02*
X0484050Y0082050D01*
X0483252Y0082848D02*
X0473702Y0082848D01*
X0474076Y0083647D02*
X0482915Y0083647D01*
X0487782Y0084707D02*
X0488333Y0084156D01*
X0488333Y0076400D01*
X0493333Y0071400D01*
X0493333Y0057400D01*
X0492333Y0056400D01*
X0487782Y0056400D01*
X0485361Y0053135D02*
X0484161Y0053632D01*
X0483242Y0054550D01*
X0483691Y0054102D02*
X0472976Y0054102D01*
X0471713Y0053303D02*
X0484954Y0053303D01*
X0485361Y0053135D02*
X0490203Y0053135D01*
X0491403Y0053632D01*
X0492322Y0054550D01*
X0492467Y0054900D01*
X0492955Y0054900D01*
X0496833Y0054900D01*
X0496833Y0054102D02*
X0491873Y0054102D01*
X0492955Y0054900D02*
X0493833Y0055779D01*
X0494833Y0056779D01*
X0494833Y0072021D01*
X0493955Y0072900D01*
X0493589Y0073266D02*
X0496833Y0073266D01*
X0496833Y0074065D02*
X0492790Y0074065D01*
X0491992Y0074863D02*
X0496833Y0074863D01*
X0496833Y0075662D02*
X0491193Y0075662D01*
X0490395Y0076460D02*
X0496833Y0076460D01*
X0496833Y0077259D02*
X0489833Y0077259D01*
X0489833Y0078057D02*
X0496833Y0078057D01*
X0496833Y0078856D02*
X0489833Y0078856D01*
X0489833Y0079654D02*
X0496833Y0079654D01*
X0496833Y0080453D02*
X0489833Y0080453D01*
X0489833Y0081251D02*
X0496833Y0081251D01*
X0496833Y0082050D02*
X0491514Y0082050D01*
X0492313Y0082848D02*
X0496833Y0082848D01*
X0496833Y0083647D02*
X0492649Y0083647D01*
X0492819Y0084445D02*
X0496833Y0084445D01*
X0496833Y0085244D02*
X0492819Y0085244D01*
X0492535Y0086042D02*
X0496833Y0086042D01*
X0496833Y0086841D02*
X0492038Y0086841D01*
X0491008Y0087639D02*
X0496833Y0087639D01*
X0496833Y0088438D02*
X0490935Y0088438D01*
X0492008Y0089236D02*
X0496833Y0089236D01*
X0496833Y0090035D02*
X0493089Y0090035D01*
X0493888Y0090833D02*
X0496833Y0090833D01*
X0496833Y0091632D02*
X0494686Y0091632D01*
X0494833Y0092430D02*
X0496833Y0092430D01*
X0496833Y0093229D02*
X0494833Y0093229D01*
X0494833Y0094027D02*
X0496833Y0094027D01*
X0496833Y0094826D02*
X0494833Y0094826D01*
X0494833Y0095624D02*
X0496833Y0095624D01*
X0496833Y0096423D02*
X0494833Y0096423D01*
X0494833Y0097221D02*
X0496833Y0097221D01*
X0496833Y0098020D02*
X0494833Y0098020D01*
X0494833Y0098818D02*
X0496833Y0098818D01*
X0496833Y0099617D02*
X0494833Y0099617D01*
X0494833Y0100415D02*
X0496833Y0100415D01*
X0496833Y0101214D02*
X0494833Y0101214D01*
X0494833Y0102012D02*
X0496833Y0102012D01*
X0496833Y0102811D02*
X0494044Y0102811D01*
X0493245Y0103609D02*
X0496833Y0103609D01*
X0496833Y0104408D02*
X0492447Y0104408D01*
X0511640Y0100849D02*
X0511640Y0090093D01*
X0511833Y0089900D01*
X0514833Y0089900D01*
X0518333Y0086400D01*
X0518333Y0081951D01*
X0521546Y0084500D02*
X0521102Y0085573D01*
X0520183Y0086491D01*
X0519833Y0086636D01*
X0519833Y0087021D01*
X0516333Y0090521D01*
X0515455Y0091400D01*
X0513940Y0091400D01*
X0513278Y0092062D01*
X0513140Y0092119D01*
X0513140Y0096164D01*
X0513490Y0096309D01*
X0514409Y0097227D01*
X0514906Y0098428D01*
X0514906Y0103270D01*
X0514409Y0104470D01*
X0513979Y0104900D01*
X0515995Y0104900D01*
X0515565Y0104470D01*
X0515068Y0103270D01*
X0515068Y0098428D01*
X0515565Y0097227D01*
X0516484Y0096309D01*
X0516833Y0096164D01*
X0516833Y0091779D01*
X0517712Y0090900D01*
X0520212Y0088400D01*
X0527712Y0088400D01*
X0530333Y0085779D01*
X0530333Y0084006D01*
X0529672Y0083344D01*
X0529283Y0082407D01*
X0529283Y0081393D01*
X0529672Y0080456D01*
X0530389Y0079738D01*
X0531326Y0079350D01*
X0532341Y0079350D01*
X0533278Y0079738D01*
X0533995Y0080456D01*
X0534383Y0081393D01*
X0534383Y0082407D01*
X0533995Y0083344D01*
X0533333Y0084006D01*
X0533333Y0087021D01*
X0529833Y0090521D01*
X0528955Y0091400D01*
X0521455Y0091400D01*
X0519833Y0093021D01*
X0519833Y0096164D01*
X0520183Y0096309D01*
X0521102Y0097227D01*
X0521599Y0098428D01*
X0521599Y0103270D01*
X0521102Y0104470D01*
X0520672Y0104900D01*
X0522688Y0104900D01*
X0522258Y0104470D01*
X0521761Y0103270D01*
X0521761Y0098428D01*
X0522258Y0097227D01*
X0523177Y0096309D01*
X0523526Y0096164D01*
X0523526Y0095086D01*
X0526743Y0091869D01*
X0544576Y0091869D01*
X0544576Y0091732D01*
X0544908Y0091400D01*
X0544576Y0091068D01*
X0544576Y0087795D01*
X0544695Y0087675D01*
X0544556Y0087535D01*
X0544371Y0087216D01*
X0544276Y0086860D01*
X0544276Y0085685D01*
X0548143Y0085685D01*
X0548143Y0085304D01*
X0548524Y0085304D01*
X0548524Y0085685D01*
X0552391Y0085685D01*
X0552391Y0086860D01*
X0552295Y0087216D01*
X0552111Y0087535D01*
X0551971Y0087675D01*
X0552091Y0087795D01*
X0552091Y0087931D01*
X0554486Y0087931D01*
X0555405Y0088850D01*
X0556341Y0088850D01*
X0557278Y0089238D01*
X0557995Y0089956D01*
X0558383Y0090893D01*
X0558383Y0091907D01*
X0557995Y0092844D01*
X0557278Y0093562D01*
X0556341Y0093950D01*
X0555326Y0093950D01*
X0554389Y0093562D01*
X0553672Y0092844D01*
X0553283Y0091907D01*
X0553283Y0090971D01*
X0553243Y0090931D01*
X0552091Y0090931D01*
X0552091Y0091068D01*
X0551759Y0091400D01*
X0552091Y0091732D01*
X0552091Y0095005D01*
X0551759Y0095337D01*
X0552091Y0095669D01*
X0552091Y0098942D01*
X0551446Y0099587D01*
X0545220Y0099587D01*
X0544576Y0098942D01*
X0544576Y0095669D01*
X0544908Y0095337D01*
X0544576Y0095005D01*
X0544576Y0094868D01*
X0527986Y0094868D01*
X0526642Y0096212D01*
X0526876Y0096309D01*
X0527794Y0097227D01*
X0528292Y0098428D01*
X0528292Y0103270D01*
X0527794Y0104470D01*
X0527365Y0104900D01*
X0557765Y0104900D01*
X0557765Y0099606D01*
X0558409Y0098961D01*
X0566833Y0098961D01*
X0566833Y0083839D01*
X0558409Y0083839D01*
X0557765Y0083194D01*
X0557765Y0077900D01*
X0527789Y0077900D01*
X0527796Y0077907D01*
X0528186Y0078491D01*
X0528455Y0079140D01*
X0528592Y0079828D01*
X0528592Y0081551D01*
X0525426Y0081551D01*
X0525426Y0082351D01*
X0524626Y0082351D01*
X0524626Y0087278D01*
X0523986Y0087151D01*
X0523337Y0086882D01*
X0522753Y0086492D01*
X0522257Y0085996D01*
X0521867Y0085412D01*
X0521598Y0084763D01*
X0521546Y0084500D01*
X0521797Y0085244D02*
X0521238Y0085244D01*
X0520632Y0086042D02*
X0522303Y0086042D01*
X0523275Y0086841D02*
X0519833Y0086841D01*
X0519215Y0087639D02*
X0528473Y0087639D01*
X0529271Y0086841D02*
X0526777Y0086841D01*
X0526715Y0086882D02*
X0526066Y0087151D01*
X0525426Y0087278D01*
X0525426Y0082351D01*
X0528592Y0082351D01*
X0528592Y0084074D01*
X0528455Y0084763D01*
X0528186Y0085412D01*
X0527796Y0085996D01*
X0527299Y0086492D01*
X0526715Y0086882D01*
X0525426Y0086841D02*
X0524626Y0086841D01*
X0524626Y0086042D02*
X0525426Y0086042D01*
X0525426Y0085244D02*
X0524626Y0085244D01*
X0524626Y0084445D02*
X0525426Y0084445D01*
X0525426Y0083647D02*
X0524626Y0083647D01*
X0524626Y0082848D02*
X0525426Y0082848D01*
X0525426Y0082050D02*
X0529283Y0082050D01*
X0529342Y0081251D02*
X0528592Y0081251D01*
X0528592Y0080453D02*
X0529674Y0080453D01*
X0530592Y0079654D02*
X0528557Y0079654D01*
X0528337Y0078856D02*
X0557765Y0078856D01*
X0557765Y0079654D02*
X0533075Y0079654D01*
X0533992Y0080453D02*
X0557765Y0080453D01*
X0557765Y0081251D02*
X0534325Y0081251D01*
X0534383Y0082050D02*
X0557765Y0082050D01*
X0557765Y0082848D02*
X0534201Y0082848D01*
X0533693Y0083647D02*
X0544444Y0083647D01*
X0544371Y0083773D02*
X0544556Y0083454D01*
X0544816Y0083193D01*
X0545135Y0083009D01*
X0545492Y0082913D01*
X0548143Y0082913D01*
X0548143Y0085304D01*
X0544276Y0085304D01*
X0544276Y0084129D01*
X0544371Y0083773D01*
X0544276Y0084445D02*
X0533333Y0084445D01*
X0533333Y0085244D02*
X0544276Y0085244D01*
X0544276Y0086042D02*
X0533333Y0086042D01*
X0533333Y0086841D02*
X0544276Y0086841D01*
X0544660Y0087639D02*
X0532715Y0087639D01*
X0531917Y0088438D02*
X0544576Y0088438D01*
X0544576Y0089236D02*
X0531118Y0089236D01*
X0530320Y0090035D02*
X0544576Y0090035D01*
X0544576Y0090833D02*
X0529521Y0090833D01*
X0528333Y0089900D02*
X0520833Y0089900D01*
X0518333Y0092400D01*
X0518333Y0100849D01*
X0515068Y0101214D02*
X0514906Y0101214D01*
X0514906Y0102012D02*
X0515068Y0102012D01*
X0515068Y0102811D02*
X0514906Y0102811D01*
X0514765Y0103609D02*
X0515209Y0103609D01*
X0515539Y0104408D02*
X0514434Y0104408D01*
X0521127Y0104408D02*
X0522232Y0104408D01*
X0521902Y0103609D02*
X0521458Y0103609D01*
X0521599Y0102811D02*
X0521761Y0102811D01*
X0521761Y0102012D02*
X0521599Y0102012D01*
X0521599Y0101214D02*
X0521761Y0101214D01*
X0521761Y0100415D02*
X0521599Y0100415D01*
X0521599Y0099617D02*
X0521761Y0099617D01*
X0521761Y0098818D02*
X0521599Y0098818D01*
X0521430Y0098020D02*
X0521930Y0098020D01*
X0522264Y0097221D02*
X0521095Y0097221D01*
X0520297Y0096423D02*
X0523063Y0096423D01*
X0523526Y0095624D02*
X0519833Y0095624D01*
X0519833Y0094826D02*
X0523786Y0094826D01*
X0524585Y0094027D02*
X0519833Y0094027D01*
X0519833Y0093229D02*
X0525383Y0093229D01*
X0526182Y0092430D02*
X0520424Y0092430D01*
X0521223Y0091632D02*
X0544676Y0091632D01*
X0548333Y0093369D02*
X0527365Y0093369D01*
X0525026Y0095707D01*
X0525026Y0100849D01*
X0528292Y0101214D02*
X0557765Y0101214D01*
X0557765Y0102012D02*
X0528292Y0102012D01*
X0528292Y0102811D02*
X0557765Y0102811D01*
X0557765Y0103609D02*
X0528151Y0103609D01*
X0527820Y0104408D02*
X0557765Y0104408D01*
X0557765Y0100415D02*
X0528292Y0100415D01*
X0528292Y0099617D02*
X0557765Y0099617D01*
X0552091Y0098818D02*
X0566833Y0098818D01*
X0566833Y0098020D02*
X0552091Y0098020D01*
X0552091Y0097221D02*
X0566833Y0097221D01*
X0566833Y0096423D02*
X0552091Y0096423D01*
X0552046Y0095624D02*
X0566833Y0095624D01*
X0566833Y0094826D02*
X0552091Y0094826D01*
X0552091Y0094027D02*
X0566833Y0094027D01*
X0566833Y0093229D02*
X0557611Y0093229D01*
X0558167Y0092430D02*
X0566833Y0092430D01*
X0566833Y0091632D02*
X0558383Y0091632D01*
X0558359Y0090833D02*
X0566833Y0090833D01*
X0566833Y0090035D02*
X0558028Y0090035D01*
X0557273Y0089236D02*
X0566833Y0089236D01*
X0566833Y0088438D02*
X0554992Y0088438D01*
X0553865Y0089431D02*
X0555833Y0091400D01*
X0553500Y0092430D02*
X0552091Y0092430D01*
X0552091Y0093229D02*
X0554056Y0093229D01*
X0553283Y0091632D02*
X0551991Y0091632D01*
X0553865Y0089431D02*
X0548333Y0089431D01*
X0552007Y0087639D02*
X0566833Y0087639D01*
X0566833Y0086841D02*
X0552391Y0086841D01*
X0552391Y0086042D02*
X0566833Y0086042D01*
X0566833Y0085244D02*
X0552391Y0085244D01*
X0552391Y0085304D02*
X0548524Y0085304D01*
X0548524Y0082913D01*
X0551175Y0082913D01*
X0551531Y0083009D01*
X0551850Y0083193D01*
X0552111Y0083454D01*
X0552295Y0083773D01*
X0552391Y0084129D01*
X0552391Y0085304D01*
X0552391Y0084445D02*
X0566833Y0084445D01*
X0558217Y0083647D02*
X0552222Y0083647D01*
X0548524Y0083647D02*
X0548143Y0083647D01*
X0548143Y0084445D02*
X0548524Y0084445D01*
X0548524Y0085244D02*
X0548143Y0085244D01*
X0531833Y0086400D02*
X0531833Y0081900D01*
X0529466Y0082848D02*
X0528592Y0082848D01*
X0528592Y0083647D02*
X0529974Y0083647D01*
X0530333Y0084445D02*
X0528518Y0084445D01*
X0528255Y0085244D02*
X0530333Y0085244D01*
X0530070Y0086042D02*
X0527749Y0086042D01*
X0528333Y0089900D02*
X0531833Y0086400D01*
X0520174Y0088438D02*
X0518417Y0088438D01*
X0517618Y0089236D02*
X0519376Y0089236D01*
X0518577Y0090035D02*
X0516820Y0090035D01*
X0516021Y0090833D02*
X0517779Y0090833D01*
X0516980Y0091632D02*
X0513708Y0091632D01*
X0513140Y0092430D02*
X0516833Y0092430D01*
X0516833Y0093229D02*
X0513140Y0093229D01*
X0513140Y0094027D02*
X0516833Y0094027D01*
X0516833Y0094826D02*
X0513140Y0094826D01*
X0513140Y0095624D02*
X0516833Y0095624D01*
X0516370Y0096423D02*
X0513604Y0096423D01*
X0514403Y0097221D02*
X0515571Y0097221D01*
X0515237Y0098020D02*
X0514737Y0098020D01*
X0514906Y0098818D02*
X0515068Y0098818D01*
X0515068Y0099617D02*
X0514906Y0099617D01*
X0514906Y0100415D02*
X0515068Y0100415D01*
X0526990Y0096423D02*
X0544576Y0096423D01*
X0544576Y0097221D02*
X0527788Y0097221D01*
X0528123Y0098020D02*
X0544576Y0098020D01*
X0544576Y0098818D02*
X0528292Y0098818D01*
X0527230Y0095624D02*
X0544620Y0095624D01*
X0491833Y0095624D02*
X0491703Y0095624D01*
X0491833Y0094826D02*
X0480883Y0094826D01*
X0480793Y0095624D02*
X0483861Y0095624D01*
X0483168Y0096423D02*
X0480477Y0096423D01*
X0480026Y0098093D02*
X0478333Y0096400D01*
X0478333Y0094900D01*
X0478333Y0093400D01*
X0476333Y0091400D01*
X0468885Y0091400D01*
X0464659Y0089236D02*
X0432008Y0089236D01*
X0432523Y0090035D02*
X0464144Y0090035D01*
X0463848Y0090833D02*
X0432819Y0090833D01*
X0432819Y0091632D02*
X0463848Y0091632D01*
X0464005Y0092430D02*
X0432661Y0092430D01*
X0432331Y0093229D02*
X0464336Y0093229D01*
X0465122Y0094027D02*
X0431544Y0094027D01*
X0427782Y0091400D02*
X0421333Y0091400D01*
X0418333Y0088400D01*
X0418333Y0087400D01*
X0418333Y0086400D01*
X0416640Y0084707D01*
X0408885Y0084707D01*
X0413140Y0086841D02*
X0415805Y0086841D01*
X0415783Y0087639D02*
X0412110Y0087639D01*
X0412037Y0088438D02*
X0416003Y0088438D01*
X0416563Y0089236D02*
X0413110Y0089236D01*
X0413625Y0090035D02*
X0417847Y0090035D01*
X0418645Y0090833D02*
X0413922Y0090833D01*
X0413922Y0091632D02*
X0419444Y0091632D01*
X0420242Y0092430D02*
X0413764Y0092430D01*
X0408885Y0091400D02*
X0403333Y0091400D01*
X0401333Y0089400D01*
X0401333Y0065400D01*
X0403640Y0063093D01*
X0408885Y0063093D01*
X0413086Y0065281D02*
X0423184Y0065281D01*
X0423241Y0065366D02*
X0422851Y0064782D01*
X0422582Y0064133D01*
X0422455Y0063493D01*
X0427382Y0063493D01*
X0427382Y0062693D01*
X0422455Y0062693D01*
X0422582Y0062053D01*
X0422851Y0061404D01*
X0423241Y0060820D01*
X0423738Y0060324D01*
X0424322Y0059933D01*
X0424971Y0059665D01*
X0425233Y0059612D01*
X0424161Y0059168D01*
X0423242Y0058250D01*
X0423097Y0057900D01*
X0420212Y0057900D01*
X0417717Y0055405D01*
X0416889Y0055062D01*
X0416172Y0054344D01*
X0415783Y0053407D01*
X0415783Y0052393D01*
X0415907Y0052095D01*
X0415019Y0051207D01*
X0413569Y0051207D01*
X0413424Y0051557D01*
X0412506Y0052475D01*
X0411306Y0052972D01*
X0406463Y0052972D01*
X0405263Y0052475D01*
X0404345Y0051557D01*
X0403848Y0050357D01*
X0403848Y0049058D01*
X0404345Y0047857D01*
X0405263Y0046939D01*
X0406463Y0046442D01*
X0411306Y0046442D01*
X0412506Y0046939D01*
X0413424Y0047857D01*
X0413569Y0048207D01*
X0416262Y0048207D01*
X0417140Y0049086D01*
X0418405Y0050350D01*
X0418841Y0050350D01*
X0419778Y0050738D01*
X0420495Y0051456D01*
X0420883Y0052393D01*
X0420883Y0053407D01*
X0420613Y0054059D01*
X0421455Y0054900D01*
X0423097Y0054900D01*
X0423242Y0054550D01*
X0424161Y0053632D01*
X0425361Y0053135D01*
X0430203Y0053135D01*
X0431403Y0053632D01*
X0432322Y0054550D01*
X0432819Y0055750D01*
X0432819Y0057050D01*
X0432322Y0058250D01*
X0431403Y0059168D01*
X0430331Y0059612D01*
X0430594Y0059665D01*
X0431243Y0059933D01*
X0431827Y0060324D01*
X0432323Y0060820D01*
X0432713Y0061404D01*
X0432982Y0062053D01*
X0433109Y0062693D01*
X0428182Y0062693D01*
X0428182Y0063493D01*
X0427382Y0063493D01*
X0427382Y0066658D01*
X0425659Y0066658D01*
X0424971Y0066521D01*
X0424322Y0066252D01*
X0423738Y0065862D01*
X0423241Y0065366D01*
X0422727Y0064482D02*
X0413615Y0064482D01*
X0413922Y0063684D02*
X0422493Y0063684D01*
X0422575Y0062087D02*
X0413774Y0062087D01*
X0413922Y0062885D02*
X0427382Y0062885D01*
X0427382Y0063684D02*
X0428182Y0063684D01*
X0428182Y0063493D02*
X0428182Y0066658D01*
X0429905Y0066658D01*
X0430594Y0066521D01*
X0431243Y0066252D01*
X0431827Y0065862D01*
X0432323Y0065366D01*
X0432713Y0064782D01*
X0432982Y0064133D01*
X0433109Y0063493D01*
X0428182Y0063493D01*
X0428182Y0062885D02*
X0463848Y0062885D01*
X0463848Y0062443D02*
X0463848Y0063742D01*
X0464345Y0064943D01*
X0465263Y0065861D01*
X0466463Y0066358D01*
X0471306Y0066358D01*
X0472506Y0065861D01*
X0473424Y0064943D01*
X0473922Y0063742D01*
X0473922Y0062443D01*
X0473424Y0061243D01*
X0472506Y0060325D01*
X0471306Y0059828D01*
X0466463Y0059828D01*
X0465263Y0060325D01*
X0464345Y0061243D01*
X0463848Y0062443D01*
X0463995Y0062087D02*
X0432989Y0062087D01*
X0432636Y0061288D02*
X0464326Y0061288D01*
X0465098Y0060490D02*
X0431993Y0060490D01*
X0430658Y0059691D02*
X0475783Y0059691D01*
X0475818Y0060490D02*
X0472671Y0060490D01*
X0473443Y0061288D02*
X0476148Y0061288D01*
X0476899Y0062087D02*
X0473774Y0062087D01*
X0473922Y0062885D02*
X0477697Y0062885D01*
X0477712Y0062900D02*
X0477712Y0062900D01*
X0478496Y0063684D02*
X0473922Y0063684D01*
X0473615Y0064482D02*
X0479294Y0064482D01*
X0480026Y0063093D02*
X0478333Y0061400D01*
X0478333Y0059900D01*
X0478333Y0058400D01*
X0476333Y0056400D01*
X0468885Y0056400D01*
X0464793Y0054102D02*
X0431873Y0054102D01*
X0432467Y0054900D02*
X0464200Y0054900D01*
X0463869Y0055699D02*
X0432798Y0055699D01*
X0432819Y0056497D02*
X0463848Y0056497D01*
X0463950Y0057296D02*
X0432717Y0057296D01*
X0432386Y0058094D02*
X0464280Y0058094D01*
X0464988Y0058893D02*
X0431679Y0058893D01*
X0424906Y0059691D02*
X0399833Y0059691D01*
X0399833Y0058893D02*
X0404988Y0058893D01*
X0405263Y0059168D02*
X0404345Y0058250D01*
X0404200Y0057900D01*
X0402712Y0057900D01*
X0400712Y0055900D01*
X0399833Y0055021D01*
X0399833Y0045779D01*
X0405712Y0039900D01*
X0417712Y0039900D01*
X0420833Y0036779D01*
X0420833Y0028900D01*
X0420712Y0028900D01*
X0419833Y0028021D01*
X0418802Y0026990D01*
X0418802Y0025157D01*
X0418665Y0025157D01*
X0418333Y0024826D01*
X0418002Y0025157D01*
X0417865Y0025157D01*
X0417865Y0028990D01*
X0415921Y0030934D01*
X0415921Y0031915D01*
X0415527Y0032866D01*
X0414799Y0033593D01*
X0413848Y0033987D01*
X0412819Y0033987D01*
X0411868Y0033593D01*
X0411140Y0032866D01*
X0410746Y0031915D01*
X0410746Y0030885D01*
X0411140Y0029934D01*
X0411868Y0029207D01*
X0412819Y0028813D01*
X0413799Y0028813D01*
X0414865Y0027747D01*
X0414865Y0025157D01*
X0414728Y0025157D01*
X0414608Y0025038D01*
X0414469Y0025178D01*
X0414149Y0025362D01*
X0413793Y0025457D01*
X0412618Y0025457D01*
X0412618Y0021591D01*
X0412237Y0021591D01*
X0412237Y0025457D01*
X0411062Y0025457D01*
X0410706Y0025362D01*
X0410387Y0025178D01*
X0410126Y0024917D01*
X0409942Y0024598D01*
X0409847Y0024242D01*
X0409847Y0021591D01*
X0412237Y0021591D01*
X0412237Y0021209D01*
X0412618Y0021209D01*
X0412618Y0017343D01*
X0413793Y0017343D01*
X0414149Y0017438D01*
X0414469Y0017622D01*
X0414608Y0017762D01*
X0414728Y0017643D01*
X0418002Y0017643D01*
X0418333Y0017974D01*
X0418665Y0017643D01*
X0421939Y0017643D01*
X0422270Y0017974D01*
X0422602Y0017643D01*
X0425876Y0017643D01*
X0426520Y0018287D01*
X0426520Y0024513D01*
X0425876Y0025157D01*
X0425739Y0025157D01*
X0425739Y0027116D01*
X0424833Y0028021D01*
X0423955Y0028900D01*
X0423833Y0028900D01*
X0423833Y0038021D01*
X0422955Y0038900D01*
X0422955Y0038900D01*
X0418955Y0042900D01*
X0406955Y0042900D01*
X0402833Y0047021D01*
X0402833Y0053779D01*
X0403955Y0054900D01*
X0404200Y0054900D01*
X0404345Y0054550D01*
X0405263Y0053632D01*
X0406463Y0053135D01*
X0411306Y0053135D01*
X0412506Y0053632D01*
X0413424Y0054550D01*
X0413922Y0055750D01*
X0413922Y0057050D01*
X0413424Y0058250D01*
X0412506Y0059168D01*
X0411306Y0059665D01*
X0406463Y0059665D01*
X0405263Y0059168D01*
X0405098Y0060490D02*
X0399833Y0060490D01*
X0399833Y0061288D02*
X0404326Y0061288D01*
X0402525Y0062087D02*
X0399833Y0062087D01*
X0399833Y0062885D02*
X0401727Y0062885D01*
X0400928Y0063684D02*
X0399833Y0063684D01*
X0399833Y0064482D02*
X0400130Y0064482D01*
X0399833Y0065281D02*
X0399833Y0065281D01*
X0399833Y0066079D02*
X0399833Y0066079D01*
X0399833Y0066878D02*
X0399833Y0066878D01*
X0399833Y0067676D02*
X0399833Y0067676D01*
X0399833Y0068475D02*
X0399833Y0068475D01*
X0399833Y0069273D02*
X0399833Y0069273D01*
X0399833Y0070072D02*
X0399833Y0070072D01*
X0399833Y0070870D02*
X0399833Y0070870D01*
X0399833Y0071669D02*
X0399833Y0071669D01*
X0399833Y0072468D02*
X0399833Y0072468D01*
X0399833Y0073266D02*
X0399833Y0073266D01*
X0399833Y0074065D02*
X0399833Y0074065D01*
X0399833Y0074863D02*
X0399833Y0074863D01*
X0399833Y0075662D02*
X0399833Y0075662D01*
X0399833Y0076460D02*
X0399833Y0076460D01*
X0399833Y0077259D02*
X0399833Y0077259D01*
X0399833Y0078057D02*
X0399833Y0078057D01*
X0399833Y0078856D02*
X0399833Y0078856D01*
X0399833Y0079654D02*
X0399833Y0079654D01*
X0399833Y0080453D02*
X0399833Y0080453D01*
X0399833Y0081251D02*
X0399833Y0081251D01*
X0399833Y0082050D02*
X0399833Y0082050D01*
X0399833Y0082848D02*
X0399833Y0082848D01*
X0399833Y0083647D02*
X0399833Y0083647D01*
X0399833Y0084445D02*
X0399833Y0084445D01*
X0399833Y0085244D02*
X0399833Y0085244D01*
X0399833Y0086042D02*
X0399833Y0086042D01*
X0399833Y0086841D02*
X0399833Y0086841D01*
X0399833Y0087639D02*
X0399833Y0087639D01*
X0399833Y0088438D02*
X0399833Y0088438D01*
X0399833Y0089236D02*
X0399833Y0089236D01*
X0399833Y0090035D02*
X0399847Y0090035D01*
X0399833Y0090833D02*
X0400645Y0090833D01*
X0401444Y0091632D02*
X0399833Y0091632D01*
X0399833Y0092430D02*
X0402242Y0092430D01*
X0404336Y0093229D02*
X0399833Y0093229D01*
X0399833Y0094027D02*
X0405122Y0094027D01*
X0404659Y0089236D02*
X0403291Y0089236D01*
X0402833Y0088438D02*
X0405732Y0088438D01*
X0405659Y0087639D02*
X0402833Y0087639D01*
X0402833Y0086841D02*
X0404629Y0086841D01*
X0404131Y0086042D02*
X0402833Y0086042D01*
X0402833Y0085244D02*
X0403848Y0085244D01*
X0403848Y0084445D02*
X0402833Y0084445D01*
X0402833Y0083647D02*
X0404018Y0083647D01*
X0404354Y0082848D02*
X0402833Y0082848D01*
X0402833Y0082050D02*
X0405152Y0082050D01*
X0402833Y0079654D02*
X0486833Y0079654D01*
X0486833Y0078856D02*
X0402833Y0078856D01*
X0402833Y0078057D02*
X0486833Y0078057D01*
X0486833Y0077259D02*
X0402833Y0077259D01*
X0402833Y0076460D02*
X0486833Y0076460D01*
X0486950Y0075662D02*
X0402833Y0075662D01*
X0402833Y0074863D02*
X0487749Y0074863D01*
X0488547Y0074065D02*
X0402833Y0074065D01*
X0402833Y0073266D02*
X0489346Y0073266D01*
X0490144Y0072468D02*
X0402833Y0072468D01*
X0402833Y0071669D02*
X0490943Y0071669D01*
X0491742Y0070870D02*
X0402833Y0070870D01*
X0402833Y0070072D02*
X0491833Y0070072D01*
X0491833Y0069273D02*
X0402833Y0069273D01*
X0402833Y0068475D02*
X0491833Y0068475D01*
X0491833Y0067676D02*
X0402833Y0067676D01*
X0402833Y0066878D02*
X0491833Y0066878D01*
X0491833Y0066079D02*
X0490877Y0066079D01*
X0484688Y0066079D02*
X0471979Y0066079D01*
X0473086Y0065281D02*
X0483581Y0065281D01*
X0480026Y0063093D02*
X0487782Y0063093D01*
X0483224Y0061288D02*
X0480518Y0061288D01*
X0475990Y0058893D02*
X0472781Y0058893D01*
X0473489Y0058094D02*
X0475906Y0058094D01*
X0463848Y0063684D02*
X0433071Y0063684D01*
X0432837Y0064482D02*
X0464154Y0064482D01*
X0464683Y0065281D02*
X0432380Y0065281D01*
X0431502Y0066079D02*
X0465790Y0066079D01*
X0494833Y0059691D02*
X0496833Y0059691D01*
X0496833Y0058893D02*
X0494833Y0058893D01*
X0494833Y0058094D02*
X0496833Y0058094D01*
X0496833Y0057296D02*
X0494833Y0057296D01*
X0494552Y0056497D02*
X0496833Y0056497D01*
X0496833Y0055699D02*
X0493753Y0055699D01*
X0496833Y0053303D02*
X0490610Y0053303D01*
X0490203Y0052972D02*
X0485361Y0052972D01*
X0484161Y0052475D01*
X0483242Y0051557D01*
X0482745Y0050357D01*
X0482745Y0049058D01*
X0483242Y0047857D01*
X0484161Y0046939D01*
X0485361Y0046442D01*
X0486282Y0046442D01*
X0486282Y0041470D01*
X0480833Y0036021D01*
X0480833Y0034400D01*
X0480712Y0034400D01*
X0479833Y0033521D01*
X0478802Y0032490D01*
X0478802Y0025157D01*
X0478665Y0025157D01*
X0478333Y0024826D01*
X0478002Y0025157D01*
X0477865Y0025157D01*
X0477865Y0028990D01*
X0475921Y0030934D01*
X0475921Y0031915D01*
X0475527Y0032866D01*
X0474799Y0033593D01*
X0473848Y0033987D01*
X0472819Y0033987D01*
X0471868Y0033593D01*
X0471140Y0032866D01*
X0470746Y0031915D01*
X0470746Y0030885D01*
X0471140Y0029934D01*
X0471868Y0029207D01*
X0472819Y0028813D01*
X0473799Y0028813D01*
X0474865Y0027747D01*
X0474865Y0025157D01*
X0474728Y0025157D01*
X0474608Y0025038D01*
X0474469Y0025178D01*
X0474149Y0025362D01*
X0473793Y0025457D01*
X0472618Y0025457D01*
X0472618Y0021591D01*
X0472237Y0021591D01*
X0472237Y0025457D01*
X0471062Y0025457D01*
X0470706Y0025362D01*
X0470387Y0025178D01*
X0470126Y0024917D01*
X0469942Y0024598D01*
X0469847Y0024242D01*
X0469847Y0021591D01*
X0472237Y0021591D01*
X0472237Y0021209D01*
X0472618Y0021209D01*
X0472618Y0017343D01*
X0473793Y0017343D01*
X0474149Y0017438D01*
X0474469Y0017622D01*
X0474608Y0017762D01*
X0474728Y0017643D01*
X0478002Y0017643D01*
X0478333Y0017974D01*
X0478665Y0017643D01*
X0481939Y0017643D01*
X0482270Y0017974D01*
X0482602Y0017643D01*
X0485876Y0017643D01*
X0486520Y0018287D01*
X0486520Y0024513D01*
X0485876Y0025157D01*
X0485739Y0025157D01*
X0485739Y0032616D01*
X0484833Y0033521D01*
X0483955Y0034400D01*
X0483833Y0034400D01*
X0483833Y0034779D01*
X0489282Y0040227D01*
X0489282Y0046442D01*
X0490203Y0046442D01*
X0491403Y0046939D01*
X0492322Y0047857D01*
X0492819Y0049058D01*
X0492819Y0050357D01*
X0492322Y0051557D01*
X0491403Y0052475D01*
X0490203Y0052972D01*
X0491332Y0052505D02*
X0496833Y0052505D01*
X0496833Y0051706D02*
X0492173Y0051706D01*
X0492591Y0050908D02*
X0496833Y0050908D01*
X0496833Y0050109D02*
X0492819Y0050109D01*
X0492819Y0049311D02*
X0496833Y0049311D01*
X0496833Y0048512D02*
X0492593Y0048512D01*
X0492178Y0047714D02*
X0496833Y0047714D01*
X0496833Y0046915D02*
X0491346Y0046915D01*
X0489282Y0046117D02*
X0496833Y0046117D01*
X0496833Y0045318D02*
X0489282Y0045318D01*
X0489282Y0044520D02*
X0496833Y0044520D01*
X0496833Y0043721D02*
X0489282Y0043721D01*
X0489282Y0042923D02*
X0496833Y0042923D01*
X0496833Y0042124D02*
X0489282Y0042124D01*
X0489282Y0041326D02*
X0496833Y0041326D01*
X0496833Y0040527D02*
X0489282Y0040527D01*
X0488783Y0039729D02*
X0496833Y0039729D01*
X0496833Y0038930D02*
X0487985Y0038930D01*
X0487186Y0038132D02*
X0496833Y0038132D01*
X0496833Y0037333D02*
X0486388Y0037333D01*
X0485589Y0036534D02*
X0496833Y0036534D01*
X0496833Y0035736D02*
X0484791Y0035736D01*
X0483992Y0034937D02*
X0496833Y0034937D01*
X0496833Y0034139D02*
X0484216Y0034139D01*
X0485014Y0033340D02*
X0496833Y0033340D01*
X0496833Y0032542D02*
X0485739Y0032542D01*
X0485739Y0031743D02*
X0496833Y0031743D01*
X0496833Y0030945D02*
X0485739Y0030945D01*
X0485739Y0030146D02*
X0496833Y0030146D01*
X0496833Y0029348D02*
X0485739Y0029348D01*
X0485739Y0028549D02*
X0496833Y0028549D01*
X0496833Y0027751D02*
X0485739Y0027751D01*
X0485739Y0026952D02*
X0496833Y0026952D01*
X0496833Y0026154D02*
X0485739Y0026154D01*
X0485739Y0025355D02*
X0496833Y0025355D01*
X0496833Y0024557D02*
X0486476Y0024557D01*
X0486520Y0023758D02*
X0496833Y0023758D01*
X0496833Y0022960D02*
X0486520Y0022960D01*
X0486520Y0022161D02*
X0496833Y0022161D01*
X0496833Y0021363D02*
X0486520Y0021363D01*
X0486520Y0020564D02*
X0496833Y0020564D01*
X0496833Y0019766D02*
X0486520Y0019766D01*
X0486520Y0018967D02*
X0496833Y0018967D01*
X0496833Y0018169D02*
X0486402Y0018169D01*
X0496833Y0017370D02*
X0473897Y0017370D01*
X0472618Y0017370D02*
X0472237Y0017370D01*
X0472237Y0017343D02*
X0472237Y0021209D01*
X0469847Y0021209D01*
X0469847Y0018558D01*
X0469942Y0018202D01*
X0470126Y0017883D01*
X0470387Y0017622D01*
X0470706Y0017438D01*
X0471062Y0017343D01*
X0472237Y0017343D01*
X0472237Y0018169D02*
X0472618Y0018169D01*
X0472618Y0018967D02*
X0472237Y0018967D01*
X0472237Y0019766D02*
X0472618Y0019766D01*
X0472618Y0020564D02*
X0472237Y0020564D01*
X0472237Y0021363D02*
X0426520Y0021363D01*
X0426520Y0022161D02*
X0469847Y0022161D01*
X0469847Y0022960D02*
X0426520Y0022960D01*
X0426520Y0023758D02*
X0469847Y0023758D01*
X0469931Y0024557D02*
X0426476Y0024557D01*
X0425739Y0025355D02*
X0470695Y0025355D01*
X0472237Y0025355D02*
X0472618Y0025355D01*
X0472618Y0024557D02*
X0472237Y0024557D01*
X0472237Y0023758D02*
X0472618Y0023758D01*
X0472618Y0022960D02*
X0472237Y0022960D01*
X0472237Y0022161D02*
X0472618Y0022161D01*
X0469847Y0020564D02*
X0426520Y0020564D01*
X0426520Y0019766D02*
X0469847Y0019766D01*
X0469847Y0018967D02*
X0426520Y0018967D01*
X0426402Y0018169D02*
X0469961Y0018169D01*
X0470959Y0017370D02*
X0413897Y0017370D01*
X0412618Y0017370D02*
X0412237Y0017370D01*
X0412237Y0017343D02*
X0412237Y0021209D01*
X0409847Y0021209D01*
X0409847Y0018558D01*
X0409942Y0018202D01*
X0410126Y0017883D01*
X0410387Y0017622D01*
X0410706Y0017438D01*
X0411062Y0017343D01*
X0412237Y0017343D01*
X0412237Y0018169D02*
X0412618Y0018169D01*
X0412618Y0018967D02*
X0412237Y0018967D01*
X0412237Y0019766D02*
X0412618Y0019766D01*
X0412618Y0020564D02*
X0412237Y0020564D01*
X0412237Y0021363D02*
X0399833Y0021363D01*
X0399833Y0022161D02*
X0409847Y0022161D01*
X0409847Y0022960D02*
X0399833Y0022960D01*
X0399833Y0023758D02*
X0409847Y0023758D01*
X0409931Y0024557D02*
X0399833Y0024557D01*
X0399833Y0025355D02*
X0410695Y0025355D01*
X0412237Y0025355D02*
X0412618Y0025355D01*
X0412618Y0024557D02*
X0412237Y0024557D01*
X0412237Y0023758D02*
X0412618Y0023758D01*
X0412618Y0022960D02*
X0412237Y0022960D01*
X0412237Y0022161D02*
X0412618Y0022161D01*
X0409847Y0020564D02*
X0399833Y0020564D01*
X0399833Y0019766D02*
X0409847Y0019766D01*
X0409847Y0018967D02*
X0399833Y0018967D01*
X0399833Y0018169D02*
X0409961Y0018169D01*
X0410959Y0017370D02*
X0399833Y0017370D01*
X0399833Y0016572D02*
X0496833Y0016572D01*
X0496833Y0015773D02*
X0399833Y0015773D01*
X0399833Y0014975D02*
X0496833Y0014975D01*
X0496833Y0014176D02*
X0399833Y0014176D01*
X0399833Y0013378D02*
X0496833Y0013378D01*
X0496833Y0012579D02*
X0399833Y0012579D01*
X0399833Y0011781D02*
X0404304Y0011781D01*
X0403848Y0010982D02*
X0399833Y0010982D01*
X0399833Y0010184D02*
X0403848Y0010184D01*
X0403848Y0009385D02*
X0399833Y0009385D01*
X0399833Y0008587D02*
X0403848Y0008587D01*
X0403848Y0007788D02*
X0399833Y0007788D01*
X0399833Y0006990D02*
X0403848Y0006990D01*
X0403848Y0006191D02*
X0399833Y0006191D01*
X0399833Y0005393D02*
X0403848Y0005393D01*
X0403848Y0004594D02*
X0399833Y0004594D01*
X0399833Y0003796D02*
X0403848Y0003796D01*
X0403848Y0002997D02*
X0399833Y0002997D01*
X0410772Y0002997D02*
X0425895Y0002997D01*
X0425895Y0003796D02*
X0410772Y0003796D01*
X0410772Y0004594D02*
X0425895Y0004594D01*
X0425895Y0005393D02*
X0410772Y0005393D01*
X0410772Y0006191D02*
X0425895Y0006191D01*
X0425895Y0006990D02*
X0410772Y0006990D01*
X0410772Y0007788D02*
X0425895Y0007788D01*
X0425895Y0008587D02*
X0410772Y0008587D01*
X0410772Y0009385D02*
X0425895Y0009385D01*
X0425895Y0010184D02*
X0410772Y0010184D01*
X0410772Y0010982D02*
X0425895Y0010982D01*
X0426351Y0011781D02*
X0410315Y0011781D01*
X0432363Y0011781D02*
X0464304Y0011781D01*
X0463848Y0010982D02*
X0432819Y0010982D01*
X0432819Y0010184D02*
X0463848Y0010184D01*
X0463848Y0009385D02*
X0432819Y0009385D01*
X0432819Y0008587D02*
X0463848Y0008587D01*
X0463848Y0007788D02*
X0432819Y0007788D01*
X0432819Y0006990D02*
X0463848Y0006990D01*
X0463848Y0006191D02*
X0432819Y0006191D01*
X0432819Y0005393D02*
X0463848Y0005393D01*
X0463848Y0004594D02*
X0432819Y0004594D01*
X0432819Y0003796D02*
X0463848Y0003796D01*
X0463848Y0002997D02*
X0432819Y0002997D01*
X0470772Y0002997D02*
X0485895Y0002997D01*
X0485895Y0003796D02*
X0470772Y0003796D01*
X0470772Y0004594D02*
X0485895Y0004594D01*
X0485895Y0005393D02*
X0470772Y0005393D01*
X0470772Y0006191D02*
X0485895Y0006191D01*
X0485895Y0006990D02*
X0470772Y0006990D01*
X0470772Y0007788D02*
X0485895Y0007788D01*
X0485895Y0008587D02*
X0470772Y0008587D01*
X0470772Y0009385D02*
X0485895Y0009385D01*
X0485895Y0010184D02*
X0470772Y0010184D01*
X0470772Y0010982D02*
X0485895Y0010982D01*
X0486351Y0011781D02*
X0470315Y0011781D01*
X0492363Y0011781D02*
X0496833Y0011781D01*
X0496833Y0010982D02*
X0492819Y0010982D01*
X0492819Y0010184D02*
X0496833Y0010184D01*
X0496833Y0009385D02*
X0492819Y0009385D01*
X0492819Y0008587D02*
X0496833Y0008587D01*
X0496833Y0007788D02*
X0492819Y0007788D01*
X0492819Y0006990D02*
X0496833Y0006990D01*
X0496833Y0006191D02*
X0492819Y0006191D01*
X0492819Y0005393D02*
X0496833Y0005393D01*
X0496833Y0004594D02*
X0492819Y0004594D01*
X0492819Y0003796D02*
X0496833Y0003796D01*
X0496833Y0002997D02*
X0492819Y0002997D01*
X0510772Y0002997D02*
X0525895Y0002997D01*
X0525895Y0002900D02*
X0510772Y0002900D01*
X0510772Y0011324D01*
X0510128Y0011968D01*
X0504833Y0011968D01*
X0504833Y0041944D01*
X0504840Y0041938D01*
X0505424Y0041548D01*
X0506073Y0041279D01*
X0506762Y0041142D01*
X0508485Y0041142D01*
X0508485Y0044307D01*
X0509284Y0044307D01*
X0509284Y0041142D01*
X0511007Y0041142D01*
X0511696Y0041279D01*
X0512345Y0041548D01*
X0512929Y0041938D01*
X0513426Y0042434D01*
X0513816Y0043018D01*
X0514084Y0043667D01*
X0514212Y0044307D01*
X0509285Y0044307D01*
X0509285Y0045107D01*
X0514212Y0045107D01*
X0514084Y0045747D01*
X0513816Y0046396D01*
X0513426Y0046980D01*
X0512929Y0047476D01*
X0512345Y0047867D01*
X0511696Y0048135D01*
X0511434Y0048188D01*
X0512506Y0048632D01*
X0513424Y0049550D01*
X0513569Y0049900D01*
X0513955Y0049900D01*
X0518333Y0054279D01*
X0518333Y0055794D01*
X0518995Y0056456D01*
X0519052Y0056593D01*
X0523097Y0056593D01*
X0523242Y0056243D01*
X0524161Y0055325D01*
X0525361Y0054828D01*
X0530203Y0054828D01*
X0531403Y0055325D01*
X0531833Y0055755D01*
X0531833Y0053738D01*
X0531403Y0054168D01*
X0530203Y0054665D01*
X0525361Y0054665D01*
X0524161Y0054168D01*
X0523242Y0053250D01*
X0523097Y0052900D01*
X0518712Y0052900D01*
X0517833Y0052021D01*
X0515333Y0049521D01*
X0515333Y0042021D01*
X0512712Y0039400D01*
X0510940Y0039400D01*
X0510278Y0040062D01*
X0509341Y0040450D01*
X0508326Y0040450D01*
X0507389Y0040062D01*
X0506672Y0039344D01*
X0506283Y0038407D01*
X0506283Y0037393D01*
X0506672Y0036456D01*
X0507389Y0035738D01*
X0508326Y0035350D01*
X0509341Y0035350D01*
X0510278Y0035738D01*
X0510940Y0036400D01*
X0513955Y0036400D01*
X0517455Y0039900D01*
X0518333Y0040779D01*
X0518333Y0048279D01*
X0519955Y0049900D01*
X0523097Y0049900D01*
X0523242Y0049550D01*
X0524161Y0048632D01*
X0525361Y0048135D01*
X0530203Y0048135D01*
X0531403Y0048632D01*
X0531833Y0049062D01*
X0531833Y0047045D01*
X0531403Y0047475D01*
X0530203Y0047972D01*
X0525361Y0047972D01*
X0524161Y0047475D01*
X0523242Y0046557D01*
X0523097Y0046207D01*
X0522019Y0046207D01*
X0518802Y0042990D01*
X0518802Y0025157D01*
X0518665Y0025157D01*
X0518333Y0024826D01*
X0518002Y0025157D01*
X0514728Y0025157D01*
X0514608Y0025038D01*
X0514469Y0025178D01*
X0514149Y0025362D01*
X0513793Y0025457D01*
X0512618Y0025457D01*
X0512618Y0021591D01*
X0512237Y0021591D01*
X0512237Y0025457D01*
X0511062Y0025457D01*
X0510706Y0025362D01*
X0510387Y0025178D01*
X0510126Y0024917D01*
X0509942Y0024598D01*
X0509847Y0024242D01*
X0509847Y0021591D01*
X0512237Y0021591D01*
X0512237Y0021209D01*
X0512618Y0021209D01*
X0512618Y0017343D01*
X0513793Y0017343D01*
X0514149Y0017438D01*
X0514469Y0017622D01*
X0514608Y0017762D01*
X0514728Y0017643D01*
X0514865Y0017643D01*
X0514865Y0015247D01*
X0515783Y0014329D01*
X0515783Y0013393D01*
X0516172Y0012456D01*
X0516889Y0011738D01*
X0517826Y0011350D01*
X0518841Y0011350D01*
X0519778Y0011738D01*
X0520495Y0012456D01*
X0520883Y0013393D01*
X0520883Y0014407D01*
X0520495Y0015344D01*
X0519778Y0016062D01*
X0518841Y0016450D01*
X0517905Y0016450D01*
X0517865Y0016490D01*
X0517865Y0017643D01*
X0518002Y0017643D01*
X0518333Y0017974D01*
X0518665Y0017643D01*
X0521939Y0017643D01*
X0522270Y0017974D01*
X0522602Y0017643D01*
X0525876Y0017643D01*
X0526520Y0018287D01*
X0526520Y0024513D01*
X0525876Y0025157D01*
X0522602Y0025157D01*
X0522270Y0024826D01*
X0521939Y0025157D01*
X0521802Y0025157D01*
X0521802Y0041747D01*
X0523146Y0043091D01*
X0523242Y0042857D01*
X0524161Y0041939D01*
X0525361Y0041442D01*
X0530203Y0041442D01*
X0531403Y0041939D01*
X0531833Y0042369D01*
X0531833Y0011968D01*
X0526539Y0011968D01*
X0525895Y0011324D01*
X0525895Y0002900D01*
X0525895Y0003796D02*
X0510772Y0003796D01*
X0510772Y0004594D02*
X0525895Y0004594D01*
X0525895Y0005393D02*
X0510772Y0005393D01*
X0510772Y0006191D02*
X0525895Y0006191D01*
X0525895Y0006990D02*
X0510772Y0006990D01*
X0510772Y0007788D02*
X0525895Y0007788D01*
X0525895Y0008587D02*
X0510772Y0008587D01*
X0510772Y0009385D02*
X0525895Y0009385D01*
X0525895Y0010184D02*
X0510772Y0010184D01*
X0510772Y0010982D02*
X0525895Y0010982D01*
X0526351Y0011781D02*
X0519820Y0011781D01*
X0520546Y0012579D02*
X0531833Y0012579D01*
X0531833Y0013378D02*
X0520877Y0013378D01*
X0520883Y0014176D02*
X0531833Y0014176D01*
X0531833Y0014975D02*
X0520648Y0014975D01*
X0520066Y0015773D02*
X0531833Y0015773D01*
X0531833Y0016572D02*
X0517865Y0016572D01*
X0517865Y0017370D02*
X0531833Y0017370D01*
X0531833Y0018169D02*
X0526402Y0018169D01*
X0526520Y0018967D02*
X0531833Y0018967D01*
X0531833Y0019766D02*
X0526520Y0019766D01*
X0526520Y0020564D02*
X0531833Y0020564D01*
X0531833Y0021363D02*
X0526520Y0021363D01*
X0526520Y0022161D02*
X0531833Y0022161D01*
X0531833Y0022960D02*
X0526520Y0022960D01*
X0526520Y0023758D02*
X0531833Y0023758D01*
X0531833Y0024557D02*
X0526476Y0024557D01*
X0521802Y0025355D02*
X0531833Y0025355D01*
X0531833Y0026154D02*
X0521802Y0026154D01*
X0521802Y0026952D02*
X0531833Y0026952D01*
X0531833Y0027751D02*
X0521802Y0027751D01*
X0521802Y0028549D02*
X0531833Y0028549D01*
X0531833Y0029348D02*
X0521802Y0029348D01*
X0521802Y0030146D02*
X0531833Y0030146D01*
X0531833Y0030945D02*
X0521802Y0030945D01*
X0521802Y0031743D02*
X0531833Y0031743D01*
X0531833Y0032542D02*
X0521802Y0032542D01*
X0521802Y0033340D02*
X0531833Y0033340D01*
X0531833Y0034139D02*
X0521802Y0034139D01*
X0521802Y0034937D02*
X0531833Y0034937D01*
X0531833Y0035736D02*
X0521802Y0035736D01*
X0521802Y0036534D02*
X0531833Y0036534D01*
X0531833Y0037333D02*
X0521802Y0037333D01*
X0521802Y0038132D02*
X0531833Y0038132D01*
X0531833Y0038930D02*
X0521802Y0038930D01*
X0521802Y0039729D02*
X0531833Y0039729D01*
X0531833Y0040527D02*
X0521802Y0040527D01*
X0521802Y0041326D02*
X0531833Y0041326D01*
X0531833Y0042124D02*
X0531589Y0042124D01*
X0527782Y0044707D02*
X0522640Y0044707D01*
X0520302Y0042369D01*
X0520302Y0021400D01*
X0516365Y0021400D02*
X0516365Y0015869D01*
X0518333Y0013900D01*
X0515783Y0014176D02*
X0504833Y0014176D01*
X0504833Y0013378D02*
X0515790Y0013378D01*
X0516120Y0012579D02*
X0504833Y0012579D01*
X0504833Y0014975D02*
X0515137Y0014975D01*
X0514865Y0015773D02*
X0504833Y0015773D01*
X0504833Y0016572D02*
X0514865Y0016572D01*
X0514865Y0017370D02*
X0513897Y0017370D01*
X0512618Y0017370D02*
X0512237Y0017370D01*
X0512237Y0017343D02*
X0512237Y0021209D01*
X0509847Y0021209D01*
X0509847Y0018558D01*
X0509942Y0018202D01*
X0510126Y0017883D01*
X0510387Y0017622D01*
X0510706Y0017438D01*
X0511062Y0017343D01*
X0512237Y0017343D01*
X0512237Y0018169D02*
X0512618Y0018169D01*
X0512618Y0018967D02*
X0512237Y0018967D01*
X0512237Y0019766D02*
X0512618Y0019766D01*
X0512618Y0020564D02*
X0512237Y0020564D01*
X0512237Y0021363D02*
X0504833Y0021363D01*
X0504833Y0022161D02*
X0509847Y0022161D01*
X0509847Y0022960D02*
X0504833Y0022960D01*
X0504833Y0023758D02*
X0509847Y0023758D01*
X0509931Y0024557D02*
X0504833Y0024557D01*
X0504833Y0025355D02*
X0510695Y0025355D01*
X0512237Y0025355D02*
X0512618Y0025355D01*
X0512618Y0024557D02*
X0512237Y0024557D01*
X0512237Y0023758D02*
X0512618Y0023758D01*
X0512618Y0022960D02*
X0512237Y0022960D01*
X0512237Y0022161D02*
X0512618Y0022161D01*
X0509847Y0020564D02*
X0504833Y0020564D01*
X0504833Y0019766D02*
X0509847Y0019766D01*
X0509847Y0018967D02*
X0504833Y0018967D01*
X0504833Y0018169D02*
X0509961Y0018169D01*
X0510959Y0017370D02*
X0504833Y0017370D01*
X0510315Y0011781D02*
X0516846Y0011781D01*
X0484239Y0021400D02*
X0484239Y0031994D01*
X0483333Y0032900D01*
X0482333Y0032900D01*
X0482333Y0035400D01*
X0487782Y0040849D01*
X0487782Y0049707D01*
X0483392Y0051706D02*
X0473608Y0051706D01*
X0474018Y0050908D02*
X0482973Y0050908D01*
X0482745Y0050109D02*
X0474211Y0050109D01*
X0474020Y0048512D02*
X0482971Y0048512D01*
X0482745Y0049311D02*
X0469285Y0049311D01*
X0469284Y0048512D02*
X0468485Y0048512D01*
X0468485Y0047714D02*
X0469284Y0047714D01*
X0469284Y0046915D02*
X0468485Y0046915D01*
X0464874Y0046915D02*
X0431346Y0046915D01*
X0431403Y0046939D02*
X0432322Y0047857D01*
X0432819Y0049058D01*
X0432819Y0050357D01*
X0432322Y0051557D01*
X0431403Y0052475D01*
X0430203Y0052972D01*
X0425361Y0052972D01*
X0424161Y0052475D01*
X0423242Y0051557D01*
X0422745Y0050357D01*
X0422745Y0049058D01*
X0423242Y0047857D01*
X0424161Y0046939D01*
X0425361Y0046442D01*
X0430203Y0046442D01*
X0431403Y0046939D01*
X0432178Y0047714D02*
X0464157Y0047714D01*
X0463749Y0048512D02*
X0432593Y0048512D01*
X0432819Y0049311D02*
X0468484Y0049311D01*
X0464161Y0051706D02*
X0432173Y0051706D01*
X0432591Y0050908D02*
X0463751Y0050908D01*
X0463558Y0050109D02*
X0432819Y0050109D01*
X0423392Y0051706D02*
X0420599Y0051706D01*
X0420883Y0052505D02*
X0424232Y0052505D01*
X0424954Y0053303D02*
X0420883Y0053303D01*
X0420656Y0054102D02*
X0423691Y0054102D01*
X0420833Y0056400D02*
X0418333Y0053900D01*
X0418333Y0052900D01*
X0418333Y0052400D01*
X0415640Y0049707D01*
X0408885Y0049707D01*
X0413275Y0051706D02*
X0415518Y0051706D01*
X0415783Y0052505D02*
X0412435Y0052505D01*
X0411713Y0053303D02*
X0415783Y0053303D01*
X0416071Y0054102D02*
X0412976Y0054102D01*
X0413569Y0054900D02*
X0416727Y0054900D01*
X0418011Y0055699D02*
X0413900Y0055699D01*
X0413922Y0056497D02*
X0418809Y0056497D01*
X0419608Y0057296D02*
X0413820Y0057296D01*
X0413489Y0058094D02*
X0423178Y0058094D01*
X0423885Y0058893D02*
X0412781Y0058893D01*
X0412671Y0060490D02*
X0423571Y0060490D01*
X0422928Y0061288D02*
X0413443Y0061288D01*
X0404683Y0065281D02*
X0403574Y0065281D01*
X0402833Y0066079D02*
X0405790Y0066079D01*
X0411979Y0066079D02*
X0424063Y0066079D01*
X0427382Y0066079D02*
X0428182Y0066079D01*
X0428182Y0065281D02*
X0427382Y0065281D01*
X0427382Y0064482D02*
X0428182Y0064482D01*
X0404280Y0058094D02*
X0399833Y0058094D01*
X0399833Y0057296D02*
X0402108Y0057296D01*
X0401309Y0056497D02*
X0399833Y0056497D01*
X0399833Y0055699D02*
X0400511Y0055699D01*
X0399833Y0054900D02*
X0399833Y0054900D01*
X0399833Y0054102D02*
X0399833Y0054102D01*
X0399833Y0053303D02*
X0399833Y0053303D01*
X0399833Y0052505D02*
X0399833Y0052505D01*
X0399833Y0051706D02*
X0399833Y0051706D01*
X0399833Y0050908D02*
X0399833Y0050908D01*
X0399833Y0050109D02*
X0399833Y0050109D01*
X0399833Y0049311D02*
X0399833Y0049311D01*
X0399833Y0048512D02*
X0399833Y0048512D01*
X0399833Y0047714D02*
X0399833Y0047714D01*
X0399833Y0046915D02*
X0399833Y0046915D01*
X0399833Y0046117D02*
X0399833Y0046117D01*
X0399833Y0045318D02*
X0400294Y0045318D01*
X0399833Y0044520D02*
X0401092Y0044520D01*
X0401891Y0043721D02*
X0399833Y0043721D01*
X0399833Y0042923D02*
X0402689Y0042923D01*
X0403488Y0042124D02*
X0399833Y0042124D01*
X0399833Y0041326D02*
X0404286Y0041326D01*
X0405085Y0040527D02*
X0399833Y0040527D01*
X0399833Y0039729D02*
X0417883Y0039729D01*
X0418682Y0038930D02*
X0399833Y0038930D01*
X0399833Y0038132D02*
X0419480Y0038132D01*
X0420279Y0037333D02*
X0399833Y0037333D01*
X0399833Y0036534D02*
X0420833Y0036534D01*
X0420833Y0035736D02*
X0399833Y0035736D01*
X0399833Y0034937D02*
X0420833Y0034937D01*
X0420833Y0034139D02*
X0399833Y0034139D01*
X0399833Y0033340D02*
X0411615Y0033340D01*
X0411006Y0032542D02*
X0399833Y0032542D01*
X0399833Y0031743D02*
X0410746Y0031743D01*
X0410746Y0030945D02*
X0399833Y0030945D01*
X0399833Y0030146D02*
X0411052Y0030146D01*
X0411726Y0029348D02*
X0399833Y0029348D01*
X0399833Y0028549D02*
X0414063Y0028549D01*
X0414861Y0027751D02*
X0399833Y0027751D01*
X0399833Y0026952D02*
X0414865Y0026952D01*
X0414865Y0026154D02*
X0399833Y0026154D01*
X0414161Y0025355D02*
X0414865Y0025355D01*
X0417865Y0025355D02*
X0418802Y0025355D01*
X0418802Y0026154D02*
X0417865Y0026154D01*
X0417865Y0026952D02*
X0418802Y0026952D01*
X0419563Y0027751D02*
X0417865Y0027751D01*
X0417865Y0028549D02*
X0420361Y0028549D01*
X0420833Y0029348D02*
X0417507Y0029348D01*
X0416708Y0030146D02*
X0420833Y0030146D01*
X0420833Y0030945D02*
X0415921Y0030945D01*
X0415921Y0031743D02*
X0420833Y0031743D01*
X0420833Y0032542D02*
X0415661Y0032542D01*
X0415052Y0033340D02*
X0420833Y0033340D01*
X0423833Y0033340D02*
X0471615Y0033340D01*
X0471006Y0032542D02*
X0423833Y0032542D01*
X0423833Y0031743D02*
X0470746Y0031743D01*
X0470746Y0030945D02*
X0423833Y0030945D01*
X0423833Y0030146D02*
X0471052Y0030146D01*
X0471726Y0029348D02*
X0423833Y0029348D01*
X0424305Y0028549D02*
X0474063Y0028549D01*
X0474861Y0027751D02*
X0425104Y0027751D01*
X0425739Y0026952D02*
X0474865Y0026952D01*
X0474865Y0026154D02*
X0425739Y0026154D01*
X0424239Y0026494D02*
X0423333Y0027400D01*
X0422333Y0027400D01*
X0422333Y0037400D01*
X0418333Y0041400D01*
X0406333Y0041400D01*
X0401333Y0046400D01*
X0401333Y0054400D01*
X0403333Y0056400D01*
X0408885Y0056400D01*
X0404793Y0054102D02*
X0403156Y0054102D01*
X0402833Y0053303D02*
X0406056Y0053303D01*
X0405334Y0052505D02*
X0402833Y0052505D01*
X0402833Y0051706D02*
X0404494Y0051706D01*
X0404076Y0050908D02*
X0402833Y0050908D01*
X0402833Y0050109D02*
X0403848Y0050109D01*
X0403848Y0049311D02*
X0402833Y0049311D01*
X0402833Y0048512D02*
X0404073Y0048512D01*
X0404488Y0047714D02*
X0402833Y0047714D01*
X0402939Y0046915D02*
X0405320Y0046915D01*
X0403738Y0046117D02*
X0486282Y0046117D01*
X0486282Y0045318D02*
X0404537Y0045318D01*
X0405335Y0044520D02*
X0486282Y0044520D01*
X0486282Y0043721D02*
X0406134Y0043721D01*
X0406932Y0042923D02*
X0486282Y0042923D01*
X0486282Y0042124D02*
X0419731Y0042124D01*
X0420529Y0041326D02*
X0486138Y0041326D01*
X0485339Y0040527D02*
X0421328Y0040527D01*
X0422126Y0039729D02*
X0484541Y0039729D01*
X0483742Y0038930D02*
X0422925Y0038930D01*
X0423723Y0038132D02*
X0482944Y0038132D01*
X0482145Y0037333D02*
X0423833Y0037333D01*
X0423833Y0036534D02*
X0481347Y0036534D01*
X0480833Y0035736D02*
X0423833Y0035736D01*
X0423833Y0034937D02*
X0480833Y0034937D01*
X0480451Y0034139D02*
X0423833Y0034139D01*
X0416365Y0028369D02*
X0413333Y0031400D01*
X0416365Y0028369D02*
X0416365Y0021400D01*
X0420302Y0021400D02*
X0420302Y0026369D01*
X0421333Y0027400D01*
X0422333Y0027400D01*
X0424239Y0026494D02*
X0424239Y0021400D01*
X0474161Y0025355D02*
X0474865Y0025355D01*
X0477865Y0025355D02*
X0478802Y0025355D01*
X0478802Y0026154D02*
X0477865Y0026154D01*
X0477865Y0026952D02*
X0478802Y0026952D01*
X0478802Y0027751D02*
X0477865Y0027751D01*
X0477865Y0028549D02*
X0478802Y0028549D01*
X0478802Y0029348D02*
X0477507Y0029348D01*
X0476708Y0030146D02*
X0478802Y0030146D01*
X0478802Y0030945D02*
X0475921Y0030945D01*
X0475921Y0031743D02*
X0478802Y0031743D01*
X0478854Y0032542D02*
X0475661Y0032542D01*
X0475052Y0033340D02*
X0479652Y0033340D01*
X0479833Y0033521D02*
X0479833Y0033521D01*
X0481333Y0032900D02*
X0482333Y0032900D01*
X0481333Y0032900D02*
X0480302Y0031869D01*
X0480302Y0021400D01*
X0476365Y0021400D02*
X0476365Y0028369D01*
X0473333Y0031400D01*
X0504833Y0031743D02*
X0518802Y0031743D01*
X0518802Y0030945D02*
X0504833Y0030945D01*
X0504833Y0030146D02*
X0518802Y0030146D01*
X0518802Y0029348D02*
X0504833Y0029348D01*
X0504833Y0028549D02*
X0518802Y0028549D01*
X0518802Y0027751D02*
X0504833Y0027751D01*
X0504833Y0026952D02*
X0518802Y0026952D01*
X0518802Y0026154D02*
X0504833Y0026154D01*
X0514161Y0025355D02*
X0518802Y0025355D01*
X0518802Y0032542D02*
X0504833Y0032542D01*
X0504833Y0033340D02*
X0518802Y0033340D01*
X0518802Y0034139D02*
X0504833Y0034139D01*
X0504833Y0034937D02*
X0518802Y0034937D01*
X0518802Y0035736D02*
X0510272Y0035736D01*
X0508833Y0037900D02*
X0513333Y0037900D01*
X0516833Y0041400D01*
X0516833Y0048900D01*
X0519333Y0051400D01*
X0527782Y0051400D01*
X0523482Y0049311D02*
X0519365Y0049311D01*
X0518567Y0048512D02*
X0524450Y0048512D01*
X0524736Y0047714D02*
X0518333Y0047714D01*
X0518333Y0046915D02*
X0523601Y0046915D01*
X0521929Y0046117D02*
X0518333Y0046117D01*
X0518333Y0045318D02*
X0521130Y0045318D01*
X0520332Y0044520D02*
X0518333Y0044520D01*
X0518333Y0043721D02*
X0519533Y0043721D01*
X0518802Y0042923D02*
X0518333Y0042923D01*
X0518333Y0042124D02*
X0518802Y0042124D01*
X0518802Y0041326D02*
X0518333Y0041326D01*
X0518082Y0040527D02*
X0518802Y0040527D01*
X0518802Y0039729D02*
X0517283Y0039729D01*
X0516485Y0038930D02*
X0518802Y0038930D01*
X0518802Y0038132D02*
X0515686Y0038132D01*
X0514888Y0037333D02*
X0518802Y0037333D01*
X0518802Y0036534D02*
X0514089Y0036534D01*
X0507394Y0035736D02*
X0504833Y0035736D01*
X0504833Y0036534D02*
X0506639Y0036534D01*
X0506308Y0037333D02*
X0504833Y0037333D01*
X0504833Y0038132D02*
X0506283Y0038132D01*
X0506500Y0038930D02*
X0504833Y0038930D01*
X0504833Y0039729D02*
X0507056Y0039729D01*
X0505960Y0041326D02*
X0504833Y0041326D01*
X0504833Y0040527D02*
X0513839Y0040527D01*
X0513041Y0039729D02*
X0510611Y0039729D01*
X0511809Y0041326D02*
X0514638Y0041326D01*
X0515333Y0042124D02*
X0513115Y0042124D01*
X0513752Y0042923D02*
X0515333Y0042923D01*
X0515333Y0043721D02*
X0514095Y0043721D01*
X0515333Y0044520D02*
X0509285Y0044520D01*
X0509284Y0043721D02*
X0508485Y0043721D01*
X0508485Y0042923D02*
X0509284Y0042923D01*
X0509284Y0042124D02*
X0508485Y0042124D01*
X0508485Y0041326D02*
X0509284Y0041326D01*
X0514170Y0045318D02*
X0515333Y0045318D01*
X0515333Y0046117D02*
X0513931Y0046117D01*
X0513469Y0046915D02*
X0515333Y0046915D01*
X0515333Y0047714D02*
X0512574Y0047714D01*
X0512217Y0048512D02*
X0515333Y0048512D01*
X0515333Y0049311D02*
X0513185Y0049311D01*
X0514164Y0050109D02*
X0515921Y0050109D01*
X0516720Y0050908D02*
X0514962Y0050908D01*
X0515761Y0051706D02*
X0517518Y0051706D01*
X0518317Y0052505D02*
X0516559Y0052505D01*
X0517358Y0053303D02*
X0523296Y0053303D01*
X0524094Y0054102D02*
X0518156Y0054102D01*
X0518333Y0054900D02*
X0525185Y0054900D01*
X0523787Y0055699D02*
X0518333Y0055699D01*
X0519012Y0056497D02*
X0523137Y0056497D01*
X0527782Y0058093D02*
X0517026Y0058093D01*
X0516833Y0057900D01*
X0516833Y0054900D01*
X0513333Y0051400D01*
X0508885Y0051400D01*
X0530379Y0054900D02*
X0531833Y0054900D01*
X0531833Y0054102D02*
X0531470Y0054102D01*
X0531778Y0055699D02*
X0531833Y0055699D01*
X0531833Y0048512D02*
X0531115Y0048512D01*
X0530828Y0047714D02*
X0531833Y0047714D01*
X0523215Y0042923D02*
X0522977Y0042923D01*
X0522179Y0042124D02*
X0523976Y0042124D01*
X0484218Y0046915D02*
X0472895Y0046915D01*
X0473612Y0047714D02*
X0483386Y0047714D01*
X0484232Y0052505D02*
X0472887Y0052505D01*
X0466056Y0053303D02*
X0430610Y0053303D01*
X0431332Y0052505D02*
X0464882Y0052505D01*
X0427782Y0056400D02*
X0420833Y0056400D01*
X0419947Y0050908D02*
X0422973Y0050908D01*
X0422745Y0050109D02*
X0418164Y0050109D01*
X0417365Y0049311D02*
X0422745Y0049311D01*
X0422971Y0048512D02*
X0416567Y0048512D01*
X0413281Y0047714D02*
X0423386Y0047714D01*
X0424218Y0046915D02*
X0412449Y0046915D01*
X0527896Y0078057D02*
X0557765Y0078057D01*
X0491833Y0094027D02*
X0491544Y0094027D01*
X0484020Y0094027D02*
X0480732Y0094027D01*
X0480268Y0093229D02*
X0483234Y0093229D01*
X0482903Y0092430D02*
X0479485Y0092430D01*
X0478686Y0091632D02*
X0482745Y0091632D01*
X0482745Y0090833D02*
X0477888Y0090833D01*
X0477089Y0090035D02*
X0483042Y0090035D01*
X0476041Y0093229D02*
X0473433Y0093229D01*
X0472647Y0094027D02*
X0475935Y0094027D01*
X0480026Y0098093D02*
X0487782Y0098093D01*
X0466115Y0101214D02*
X0431300Y0101214D01*
X0432273Y0100415D02*
X0464817Y0100415D01*
X0464210Y0099617D02*
X0432782Y0099617D01*
X0433045Y0098818D02*
X0463879Y0098818D01*
X0428182Y0099617D02*
X0427382Y0099617D01*
X0427382Y0100415D02*
X0428182Y0100415D01*
X0428182Y0101214D02*
X0427382Y0101214D01*
X0423556Y0089236D02*
X0421291Y0089236D01*
X0420664Y0088438D02*
X0424629Y0088438D01*
X0424557Y0087639D02*
X0420883Y0087639D01*
X0420862Y0086841D02*
X0423526Y0086841D01*
X0423029Y0086042D02*
X0420531Y0086042D01*
X0419783Y0085244D02*
X0422745Y0085244D01*
X0422745Y0084445D02*
X0418500Y0084445D01*
X0417701Y0083647D02*
X0422915Y0083647D01*
X0423252Y0082848D02*
X0413415Y0082848D01*
X0412617Y0082050D02*
X0424050Y0082050D01*
X0432819Y0085244D02*
X0463584Y0085244D01*
X0463807Y0086042D02*
X0432535Y0086042D01*
X0432038Y0086841D02*
X0464250Y0086841D01*
X0465084Y0087639D02*
X0431008Y0087639D01*
X0430935Y0088438D02*
X0465732Y0088438D01*
X0468485Y0082848D02*
X0469284Y0082848D01*
X0469284Y0082050D02*
X0468485Y0082050D01*
X0468485Y0081251D02*
X0469284Y0081251D01*
D16*
X0511833Y0089900D03*
X0531833Y0081900D03*
X0555833Y0091400D03*
X0560833Y0091400D03*
X0478333Y0094900D03*
X0418333Y0087400D03*
X0478333Y0059900D03*
X0516833Y0057900D03*
X0508833Y0037900D03*
X0518333Y0013900D03*
X0518333Y0008900D03*
X0418333Y0052900D03*
D17*
X0413333Y0031400D03*
X0473333Y0031400D03*
M02*
